<?xml version="1.0" standalone="no"?>
<!DOCTYPE svg PUBLIC "-//W3C//DTD SVG 20010904//EN"
 "http://www.w3.org/TR/2001/REC-SVG-20010904/DTD/svg10.dtd">
<svg version="1.0" xmlns="http://www.w3.org/2000/svg"
 width="996.000000pt" height="1280.000000pt" viewBox="0 0 996.000000 1280.000000"
 preserveAspectRatio="xMidYMid meet">

<g transform="translate(0.000000,1280.000000) scale(0.100000,-0.100000)"
fill="#000000" stroke="none">
<path d="M5000 12086 c0 -3 12 -12 28 -20 32 -17 82 -63 82 -75 0 -15 -45 -18
-58 -5 -17 18 -15 27 4 20 9 -3 12 -2 9 5 -4 5 -16 7 -27 3 -12 -3 -18 -2 -15
3 5 8 -7 9 -44 4 -3 -1 -6 -8 -6 -16 0 -16 24 -28 38 -19 10 6 29 -38 28 -64
0 -14 -2 -14 -6 -2 -8 19 -24 35 -45 43 -10 3 -18 11 -18 16 0 5 -10 7 -22 5
-23 -5 -23 -5 0 6 13 5 20 15 16 21 -3 6 0 15 7 20 10 6 6 9 -14 9 -16 0 -26
-4 -22 -10 3 -5 0 -10 -9 -10 -8 0 -16 6 -19 13 -3 9 -7 9 -20 -2 -9 -7 -24
-11 -32 -7 -10 4 -22 -5 -34 -25 -11 -18 -22 -26 -25 -20 -4 6 -3 11 3 11 6 0
8 6 5 13 -3 8 8 26 23 42 22 22 23 25 7 17 -21 -11 -60 -62 -48 -62 3 0 -2 -8
-13 -17 -10 -10 -13 -14 -6 -9 10 6 13 2 13 -17 0 -21 -4 -24 -22 -20 -19 4
-20 3 -8 -6 13 -10 12 -14 -9 -31 -25 -21 -41 -19 -41 7 0 9 6 13 15 9 8 -3
15 -2 15 3 0 16 -13 21 -27 10 -9 -9 -13 -8 -13 0 0 6 -9 11 -21 11 -15 0 -19
-5 -15 -15 3 -9 0 -15 -9 -15 -8 0 -15 -5 -15 -11 0 -15 -48 -3 -67 17 -13 13
-33 11 -33 -2 0 -3 4 -3 9 1 5 3 13 1 16 -5 9 -15 -13 -40 -35 -40 -10 0 -20
-4 -22 -10 -5 -15 -78 11 -78 27 0 8 5 11 10 8 6 -3 10 -1 10 5 0 21 -25 4
-28 -18 -2 -12 -8 -22 -13 -22 -6 0 -7 -5 -3 -11 5 -8 1 -8 -14 0 -14 7 -23 8
-27 1 -3 -6 4 -14 16 -19 l23 -8 -21 -12 c-29 -15 -36 -14 -29 4 8 21 -21 19
-33 -2 -9 -16 -13 -16 -32 -5 -20 13 -21 12 -17 -12 6 -30 -7 -35 -15 -6 -3
13 -11 18 -20 14 -8 -3 -21 1 -29 9 -10 10 -20 12 -31 5 -10 -5 -21 -7 -26 -3
-12 7 -25 -14 -26 -39 0 -23 -25 -35 -25 -12 0 9 -5 16 -10 16 -7 0 -7 -6 0
-20 9 -16 8 -20 -5 -20 -9 0 -13 -4 -10 -10 3 -5 1 -10 -4 -10 -6 0 -11 -7
-11 -15 0 -8 -10 -19 -21 -26 -13 -6 -19 -7 -15 -1 3 6 0 12 -6 15 -10 3 -10
7 1 20 12 15 11 17 -3 17 -9 0 -16 -4 -16 -10 0 -5 -11 0 -25 12 -13 11 -22
25 -19 30 3 4 1 8 -5 8 -5 0 -13 -5 -16 -11 -4 -6 -13 -8 -21 -5 -8 3 -14 0
-14 -8 0 -8 -10 -11 -29 -8 -22 3 -28 8 -24 21 3 9 -4 4 -16 -12 -13 -15 -27
-25 -32 -22 -5 4 -6 -1 -2 -10 4 -13 8 -14 14 -4 6 10 11 10 22 1 7 -7 17 -9
20 -5 4 3 7 1 7 -5 0 -6 -6 -17 -13 -24 -8 -7 -12 -18 -10 -24 4 -12 -52 -38
-74 -35 -7 1 -9 -7 -6 -19 4 -14 0 -20 -11 -20 -9 0 -16 -4 -16 -10 0 -5 -6
-10 -14 -10 -8 0 -16 -4 -18 -9 -1 -5 -25 -11 -53 -14 -27 -2 -51 -10 -53 -16
-2 -6 -9 -8 -14 -5 -7 5 -8 2 -4 -5 6 -9 12 -9 24 2 25 21 72 0 62 -28 -7 -19
-7 -19 -14 3 -13 39 -31 26 -27 -20 3 -22 -37 -61 -55 -54 -8 3 -14 1 -14 -5
0 -6 -9 -8 -20 -4 -18 6 -25 -2 -22 -27 1 -3 -5 -9 -14 -12 -8 -3 -12 -2 -9 4
10 16 -12 12 -29 -5 -8 -8 -26 -15 -40 -15 -16 0 -26 6 -26 15 0 8 -4 15 -9
15 -20 0 2 -39 25 -44 26 -7 34 -36 9 -36 -12 0 -13 -5 -4 -26 5 -15 7 -29 4
-33 -9 -9 -40 16 -37 29 2 8 -5 10 -22 6 -15 -4 -26 -1 -29 7 -2 6 -3 -7 -1
-29 2 -37 0 -41 -17 -37 -11 3 -21 -1 -25 -10 -3 -9 -13 -14 -22 -10 -13 4
-14 3 -3 -5 11 -8 10 -13 -4 -30 -10 -11 -24 -18 -33 -14 -10 3 -13 1 -8 -6 4
-7 2 -12 -3 -12 -10 0 -15 20 -14 56 0 6 -6 11 -14 11 -8 0 -12 -6 -8 -15 3
-10 0 -12 -10 -8 -8 3 -15 1 -15 -4 0 -17 -18 -11 -23 8 -4 13 -5 11 -6 -5 -1
-29 -21 -30 -21 -1 0 32 -9 17 -12 -20 -1 -18 -6 -32 -10 -32 -4 0 -8 -5 -8
-11 0 -5 4 -8 9 -4 16 9 22 -12 6 -25 -9 -7 -23 -9 -37 -4 -13 4 -27 7 -32 5
-5 -1 -3 5 4 14 11 13 10 15 -4 9 -9 -3 -28 2 -43 11 -22 15 -25 15 -20 2 5
-12 -1 -14 -33 -11 -37 5 -81 -19 -64 -35 4 -3 9 0 11 7 3 6 11 12 18 12 7 0
16 -6 18 -12 4 -10 6 -10 6 0 1 6 6 12 12 12 6 0 8 -9 4 -21 -5 -15 -4 -19 4
-14 7 4 18 2 25 -4 11 -9 18 -8 29 3 13 13 17 13 32 -4 10 -11 15 -26 12 -35
-9 -22 -26 -18 -20 5 4 14 0 20 -12 20 -13 0 -16 -6 -11 -25 4 -15 2 -25 -5
-25 -6 0 -13 9 -16 20 -3 11 -11 20 -18 20 -10 0 -11 -6 -2 -29 7 -20 15 -27
29 -23 10 2 18 0 18 -5 0 -6 -14 -10 -31 -11 -17 0 -28 2 -25 5 3 4 -3 12 -13
19 -12 9 -17 21 -14 39 3 15 1 25 -6 25 -6 0 -11 -6 -11 -12 -1 -8 -6 -6 -14
5 -21 27 -31 1 -11 -29 9 -13 13 -30 9 -36 -4 -7 -3 -8 4 -4 12 7 14 -1 17
-81 2 -40 0 -42 -22 -37 -15 4 -23 2 -23 -6 0 -7 -7 -10 -16 -6 -12 4 -14 1
-9 -14 9 -29 -20 -26 -64 7 -20 14 -33 23 -29 18 4 -4 3 -16 -3 -26 -7 -15 -6
-19 6 -19 8 0 15 -4 15 -8 0 -11 -34 -42 -46 -42 -5 0 -22 -11 -39 -24 -24
-20 -28 -27 -17 -37 10 -11 12 -9 12 6 0 22 43 47 66 38 8 -3 14 -1 14 3 0 5
11 10 25 10 14 1 25 -2 25 -8 0 -5 4 -6 10 -3 6 3 7 -1 4 -10 -5 -12 -9 -13
-21 -4 -11 10 -13 9 -11 -2 2 -8 6 -16 9 -19 12 -10 19 -60 9 -60 -5 0 -10 -6
-10 -12 0 -7 -11 -18 -25 -25 -14 -6 -23 -7 -19 -2 3 5 -4 9 -15 9 -27 0 -36
17 -19 37 11 14 11 16 -3 11 -9 -4 -22 -1 -28 5 -6 6 -11 7 -11 1 0 -5 5 -15
11 -21 7 -7 2 -15 -17 -28 -25 -16 -29 -16 -58 -1 -30 16 -27 13 27 -27 17
-12 17 -14 3 -26 -14 -11 -16 -11 -16 3 0 9 -4 16 -9 16 -18 0 -8 -48 11 -53
17 -5 18 -9 8 -27 -11 -21 -12 -21 -26 -3 -10 12 -14 13 -11 3 2 -8 17 -21 33
-30 16 -9 30 -27 32 -39 2 -14 0 -21 -6 -17 -6 3 -13 0 -15 -6 -4 -9 -6 -10
-6 -1 -1 6 3 14 9 18 10 6 2 35 -10 35 -5 0 -6 -9 -3 -20 3 -11 0 -20 -6 -20
-9 0 -9 -5 0 -21 6 -12 9 -29 6 -39 -3 -13 0 -17 9 -13 14 5 20 -27 8 -40 -7
-7 -45 11 -55 25 -3 5 -5 -7 -5 -27 1 -30 3 -33 13 -19 7 9 18 14 26 11 8 -3
20 0 27 6 10 9 14 9 17 0 3 -7 10 -13 17 -13 6 0 12 -9 13 -21 2 -16 -3 -20
-18 -16 -11 3 -16 1 -13 -5 3 -5 -2 -16 -12 -24 -18 -13 -17 -14 9 -8 23 5 26
4 21 -12 -4 -11 -17 -29 -30 -41 -14 -14 -20 -29 -17 -43 3 -11 0 -20 -6 -20
-6 0 -11 -7 -11 -15 0 -10 -7 -15 -17 -13 -11 2 -17 -2 -15 -11 3 -12 0 -12
-13 -1 -13 11 -14 10 -9 -5 6 -15 4 -16 -15 -6 -12 7 -19 16 -16 22 4 5 -1 9
-10 9 -9 0 -13 -4 -10 -10 3 -5 2 -10 -3 -10 -6 0 -13 -7 -16 -16 -3 -8 -2
-12 4 -9 6 3 10 3 10 0 0 -8 -21 -49 -29 -55 -16 -12 -27 -59 -25 -97 2 -24
-1 -43 -7 -43 -5 0 -9 -8 -9 -17 0 -13 3 -14 8 -6 6 9 12 7 25 -7 9 -11 17
-25 17 -30 0 -16 -18 -11 -29 8 -6 9 -11 12 -11 5 0 -13 39 -53 52 -53 4 0 2
-11 -4 -25 -7 -15 -17 -24 -25 -21 -7 3 -13 1 -13 -5 0 -16 29 -22 45 -9 26
21 28 4 3 -20 -20 -20 -21 -22 -3 -16 11 4 16 4 12 0 -4 -4 -2 -13 4 -21 9
-10 8 -13 -4 -13 -12 0 -15 -10 -14 -37 1 -21 6 -41 11 -45 11 -7 16 -49 8
-63 -3 -5 -7 -20 -8 -33 -2 -13 -10 -29 -18 -35 -14 -11 -14 -15 -2 -39 11
-20 11 -28 3 -32 -7 -2 -5 -5 5 -5 19 -1 13 -40 -8 -48 -11 -4 -11 -9 -2 -26
7 -12 11 -34 9 -49 -1 -16 2 -28 8 -28 6 0 11 5 11 11 0 8 4 8 14 0 10 -8 16
-9 21 -1 9 15 24 3 20 -18 -1 -9 4 -25 12 -34 11 -12 13 -28 9 -52 -6 -30 -4
-35 9 -30 11 5 14 2 9 -10 -3 -9 -10 -13 -15 -10 -5 3 -9 -3 -9 -13 0 -11 -5
-24 -11 -30 -7 -7 -9 -19 -5 -28 4 -12 10 -14 25 -6 16 9 18 8 14 -9 -4 -13 0
-20 9 -20 12 0 15 -16 14 -80 0 -45 4 -84 9 -88 18 -13 64 -79 60 -86 -3 -3 0
-2 7 4 8 7 18 4 30 -7 18 -16 18 -16 12 0 -10 27 11 20 26 -9 12 -22 12 -27 0
-35 -8 -5 -21 -7 -28 -4 -9 3 -11 -1 -7 -15 8 -25 -11 -26 -39 -3 -14 12 -13
9 4 -10 24 -28 25 -34 27 -185 3 -297 12 -432 32 -506 22 -83 33 -148 23 -142
-4 2 -7 -18 -7 -44 0 -27 4 -48 10 -47 6 1 10 -16 9 -38 -1 -22 1 -35 3 -28 5
14 43 -15 43 -33 0 -6 11 -19 25 -28 14 -9 24 -20 22 -24 -1 -4 14 -22 33 -40
28 -25 32 -34 21 -41 -9 -6 -1 -9 28 -8 36 1 41 4 41 24 0 41 19 24 26 -24 6
-41 4 -49 -17 -65 l-23 -19 25 6 c23 6 26 2 41 -44 9 -28 13 -51 9 -51 -4 0
-14 -18 -21 -40 -7 -22 -19 -45 -27 -51 -11 -10 -7 -16 19 -35 17 -13 38 -24
45 -24 7 0 13 -7 13 -15 0 -8 6 -15 14 -15 13 0 28 -27 32 -55 0 -5 5 -19 10
-30 5 -11 9 -46 8 -77 -1 -32 2 -56 5 -53 9 5 11 -67 3 -80 -4 -5 -12 8 -19
30 l-12 40 2 -42 c1 -27 7 -43 15 -43 6 0 12 -8 12 -17 0 -10 14 -45 31 -78
39 -76 51 -113 38 -121 -6 -3 -8 -13 -5 -21 4 -9 1 -13 -6 -11 -7 3 -18 -1
-25 -8 -18 -17 -16 -29 1 -15 12 10 16 6 22 -21 4 -18 8 -44 9 -58 2 -14 3
-31 4 -37 0 -7 8 -13 16 -13 8 0 18 -12 21 -27 6 -23 8 -24 19 -9 11 15 13 15
19 1 3 -9 2 -14 -3 -11 -13 8 -19 -16 -10 -39 4 -11 8 -14 8 -7 1 6 7 12 15
12 8 0 17 6 19 13 4 7 6 6 6 -4 1 -9 -6 -20 -15 -23 -16 -6 -16 -8 0 -24 9
-10 16 -24 16 -30 0 -7 6 -11 12 -9 9 1 16 -23 22 -78 5 -44 14 -83 20 -87 6
-4 8 -10 4 -13 -8 -9 55 -73 66 -67 5 3 7 -2 3 -11 -3 -9 -2 -19 3 -22 4 -3
11 1 13 7 3 7 6 3 6 -9 1 -33 -14 -28 -45 12 -15 20 -29 33 -32 31 -7 -8 48
-70 75 -84 17 -10 22 -17 15 -24 -13 -13 -34 0 -26 15 5 9 4 9 -5 1 -9 -8 -5
-18 16 -42 15 -18 33 -32 39 -32 29 0 42 -36 46 -123 2 -64 6 -86 16 -82 13 5
16 -7 5 -19 -5 -4 -8 -24 -8 -44 -2 -105 -6 -143 -15 -137 -9 6 -9 -34 1 -70
1 -5 -2 -19 -6 -29 -5 -11 -3 -32 3 -49 6 -17 9 -33 7 -36 -3 -2 -5 1 -5 7 0
7 -4 12 -10 12 -5 0 -10 -6 -10 -14 0 -8 -7 -17 -16 -20 -9 -4 -13 -13 -10
-24 4 -11 -2 -27 -16 -42 l-22 -23 22 5 c12 4 20 2 16 -3 -7 -12 -24 -11 -59
6 -30 14 -30 14 -2 9 16 -4 27 -2 27 5 0 6 -5 11 -11 11 -5 0 1 15 15 33 15
19 26 37 26 41 0 7 -56 0 -105 -15 -16 -4 -64 -16 -105 -24 -41 -9 -104 -25
-140 -35 -36 -10 -119 -31 -185 -46 -179 -39 -284 -95 -431 -229 -64 -57 -109
-85 -284 -175 -83 -43 -261 -115 -345 -141 -22 -6 -58 -20 -80 -30 -55 -25
-305 -119 -317 -119 -5 0 -62 -21 -126 -46 -65 -26 -198 -74 -297 -109 -99
-34 -220 -78 -270 -98 -49 -19 -151 -56 -225 -82 -202 -71 -349 -146 -533
-274 l-77 -53 0 -1874 0 -1874 4980 0 4980 0 0 2032 c0 1117 -3 2028 -7 2025
-3 -4 -31 7 -62 25 -31 17 -72 40 -91 51 -190 107 -491 226 -707 277 -144 35
-370 99 -493 140 -63 21 -176 57 -250 80 -74 23 -151 48 -170 56 -44 17 -330
104 -344 104 -5 0 -48 11 -93 25 -74 23 -92 34 -154 90 -39 36 -75 65 -80 65
-6 0 -111 49 -234 110 -122 61 -226 110 -229 110 -3 0 -30 11 -59 25 -30 13
-92 31 -138 39 -214 39 -209 37 -209 56 0 10 -7 20 -15 24 -18 6 -20 67 -4 98
6 11 7 18 2 15 -6 -4 -8 23 -5 69 4 58 1 78 -9 85 -10 6 -10 9 -1 9 6 0 12 7
12 16 0 8 -3 13 -7 11 -14 -9 -1 98 14 114 11 14 12 18 1 23 -10 5 -10 7 0 12
6 3 12 11 12 19 0 7 7 18 15 25 35 29 75 102 75 136 0 19 7 51 15 71 12 29 13
38 3 45 -10 6 -6 14 14 30 32 27 78 108 78 137 0 12 7 21 15 21 8 0 15 9 15
19 0 11 12 28 27 39 28 20 39 70 19 84 -6 4 -1 8 12 8 23 0 27 16 22 96 -1 17
10 55 24 83 13 29 28 66 31 84 4 18 14 40 22 49 8 9 12 21 9 27 -4 6 1 36 11
68 9 32 16 61 15 66 -1 4 4 7 12 7 9 0 12 7 9 19 -3 10 0 22 6 25 6 4 11 12
11 17 0 6 -4 7 -10 4 -5 -3 -10 3 -10 15 0 12 5 18 10 15 6 -4 10 6 10 23 0
21 6 31 20 35 11 3 20 11 19 19 0 10 -2 10 -6 1 -2 -7 -11 -13 -18 -13 -16 0
-28 27 -15 35 6 4 10 1 10 -6 0 -8 3 -9 13 0 8 6 17 8 20 4 4 -3 7 -1 7 5 0 6
24 17 53 26 55 16 118 68 98 80 -6 4 -11 0 -11 -8 0 -8 -4 -17 -9 -21 -6 -3
-8 4 -6 15 4 20 -2 28 -38 53 -21 14 -34 92 -17 102 6 3 8 11 5 16 -4 5 -1 9
4 9 15 0 14 27 -1 33 -7 2 -9 8 -5 13 4 5 12 2 17 -6 5 -8 12 -11 16 -7 4 3 1
13 -5 21 -15 17 0 29 25 19 12 -4 15 -3 10 5 -4 7 0 15 10 19 10 4 19 2 22 -5
6 -20 32 -14 32 7 0 11 5 23 11 27 9 5 10 -1 5 -22 -5 -21 -4 -25 4 -14 5 8
10 26 11 40 0 23 1 23 8 5 6 -16 11 -9 20 35 6 30 17 58 24 62 8 5 8 8 1 8 -7
0 -9 11 -6 28 l6 27 7 -25 c6 -21 7 -19 9 15 13 226 -2 393 -53 575 -14 52
-21 107 -21 177 -1 98 0 103 27 131 15 16 26 35 24 43 -2 8 -2 11 0 6 8 -12
22 3 17 17 -3 8 -1 17 5 21 6 3 11 19 11 35 0 16 11 42 25 58 30 35 45 73 45
112 0 19 7 33 20 40 11 6 20 16 20 22 0 6 -6 5 -17 -3 -15 -12 -16 -12 -9 6 4
11 13 32 18 47 5 16 14 26 18 23 5 -3 11 -1 15 5 3 6 -4 10 -17 11 -13 0 -17
3 -10 6 6 2 12 9 12 14 0 4 -6 6 -14 3 -9 -3 -17 3 -21 16 -9 27 -2 33 35 36
29 2 40 -9 20 -21 -5 -3 -10 -11 -10 -17 0 -6 10 -2 23 10 13 12 28 22 34 22
6 0 14 11 17 25 4 17 11 23 19 18 9 -5 9 -3 1 8 -16 19 -14 66 2 80 8 6 14 16
14 22 0 7 -4 7 -12 -1 -18 -18 -26 -15 -26 11 0 12 -3 32 -7 45 -5 14 -3 22 4
22 6 0 11 -7 11 -15 0 -9 6 -12 15 -9 8 4 15 10 15 16 0 5 -4 6 -10 3 -5 -3
-15 3 -22 15 -7 11 -16 20 -21 20 -4 0 -5 -5 -1 -12 5 -7 3 -8 -5 -3 -9 5 3
21 38 52 28 25 48 50 45 58 -3 7 0 33 7 56 6 24 13 54 14 67 3 23 -9 30 -20
12 -3 -5 -1 -10 5 -10 6 0 8 -4 5 -10 -10 -16 -22 -12 -22 8 0 9 8 24 17 32 9
8 24 30 33 49 15 31 15 32 0 20 -15 -12 -16 -11 -11 8 3 12 2 23 -3 25 -11 4
-19 97 -8 104 4 2 6 11 3 19 -3 7 -1 21 4 31 10 17 -10 46 -39 57 -9 3 -4 9
15 16 28 11 28 12 10 26 -17 13 -17 16 -4 26 11 8 12 12 3 16 -7 2 -13 18 -13
35 0 35 -31 68 -64 68 -13 0 -16 3 -10 8 13 8 11 59 -3 73 -5 5 -19 10 -32 12
-14 2 -25 11 -27 20 -3 21 15 22 22 2 8 -21 21 -19 35 6 8 15 8 24 0 32 -8 8
-11 4 -11 -16 0 -26 -1 -26 -20 -10 -25 21 -26 34 -2 27 9 -3 5 2 -10 11 -22
12 -28 23 -28 50 0 19 5 35 10 35 6 0 10 -4 10 -10 0 -5 7 -7 15 -4 13 5 13 9
-3 23 -24 21 -34 49 -19 55 7 2 4 5 -5 5 -18 1 -23 12 -11 24 10 11 14 67 4
67 -5 0 -12 16 -16 36 -3 21 -13 48 -22 61 -9 13 -13 27 -9 31 4 3 11 0 16 -8
8 -13 10 -12 10 3 0 9 -7 17 -15 17 -8 0 -15 6 -15 13 0 8 -4 7 -10 -3 -8 -13
-10 -13 -10 2 0 9 -8 19 -18 22 -9 3 -22 23 -29 43 -10 33 -10 40 5 52 15 12
15 12 -5 6 -17 -5 -23 -2 -23 9 0 10 9 16 22 16 21 0 21 0 2 16 -13 11 -15 17
-6 20 32 14 -10 80 -43 67 -8 -2 -18 5 -24 16 -10 18 -9 20 6 15 10 -2 8 1 -5
7 -13 7 -39 27 -58 46 -32 30 -37 32 -51 17 -13 -12 -13 -18 -4 -24 9 -5 10
-10 2 -14 -6 -4 -11 -2 -11 4 0 7 -9 9 -22 5 -15 -4 -19 -3 -10 3 7 5 10 16 6
25 -5 13 -1 17 16 17 32 0 15 18 -29 30 -46 12 -81 41 -81 66 0 11 -5 26 -11
34 -9 13 -10 12 -5 -2 3 -10 1 -18 -4 -18 -6 0 -10 7 -10 15 0 8 -4 15 -10 15
-5 0 -7 7 -4 15 8 20 -6 19 -22 -2 -16 -22 -19 -1 -3 28 9 17 6 21 -20 30 -29
10 -43 29 -21 29 6 0 10 4 10 9 0 14 -44 21 -52 8 -6 -9 -8 -9 -8 1 0 7 -9 16
-20 20 -14 5 -17 11 -10 22 7 12 12 12 22 2 6 -6 19 -12 27 -12 10 0 6 5 -9
13 -20 10 -26 21 -28 57 -2 28 -11 51 -23 63 -10 10 -19 21 -19 25 -1 16 -67
80 -97 93 -18 8 -33 17 -33 22 0 4 -9 3 -20 -3 -24 -13 -44 -4 -36 16 3 8 0
14 -5 14 -6 0 -9 -9 -6 -20 7 -27 -17 -26 -42 2 -15 15 -18 25 -11 34 8 8 6
14 -6 18 -9 4 -14 13 -10 21 3 8 1 15 -4 15 -6 0 -10 -4 -10 -10 0 -5 -7 -7
-15 -4 -9 4 -15 0 -15 -10 0 -9 5 -16 10 -16 6 0 10 -5 10 -11 0 -7 -10 -9
-25 -5 -29 7 -32 -1 -7 -20 9 -7 13 -13 7 -13 -17 0 -42 23 -50 48 -5 18 -4
22 5 16 8 -5 11 -4 6 3 -4 6 -13 9 -20 6 -12 -5 -12 -10 -1 -31 11 -22 11 -28
0 -39 -20 -21 -39 -17 -51 10 -9 20 -9 23 2 19 9 -3 14 2 14 17 0 11 -4 18
-10 15 -10 -6 -15 9 -10 30 1 5 -1 7 -5 3 -4 -3 -20 8 -36 25 -29 30 -30 30
-36 9 -5 -22 -19 -27 -47 -16 -26 10 -18 27 9 20 14 -4 25 -2 25 4 0 5 -16 10
-36 10 -21 0 -33 -4 -29 -10 3 -5 0 -10 -9 -10 -8 0 -16 5 -18 11 -3 9 -9 9
-24 1 -25 -13 -65 5 -43 20 11 7 9 8 -6 6 -15 -3 -20 -11 -18 -31 1 -18 -3
-27 -13 -27 -8 0 -13 4 -10 8 3 5 -8 7 -23 4 -26 -3 -28 -1 -24 20 4 23 2 24
-25 20 -29 -4 -31 -2 -34 34 -3 34 -6 39 -25 37 -25 -3 -29 7 -11 25 9 9 8 12
-5 12 -9 0 -17 5 -17 12 0 6 -3 9 -6 5 -4 -3 -13 0 -21 8 -8 8 -23 15 -34 15
-10 0 -19 4 -19 9 0 5 -15 5 -35 1 -33 -7 -34 -7 -23 14 11 20 10 20 -8 6 -10
-8 -27 -24 -36 -35 -10 -11 -17 -15 -18 -9 0 5 6 16 13 23 10 11 9 12 -3 6 -8
-4 -23 -15 -33 -23 -16 -14 -17 -14 -11 1 4 12 1 17 -10 17 -9 0 -16 5 -16 11
0 7 -14 10 -35 7 -27 -3 -34 -1 -30 9 2 8 1 12 -4 8 -5 -3 -11 -1 -13 5 -2 6
-17 6 -43 -2 -22 -6 -43 -11 -47 -10 -5 1 -8 -6 -8 -15 0 -15 -2 -14 -14 2 -8
11 -12 23 -10 27 3 5 1 8 -5 8 -5 0 -13 -5 -16 -10 -5 -8 -11 -7 -21 1 -10 8
-14 8 -14 0 0 -6 4 -11 10 -11 5 0 8 -6 6 -12 -1 -7 -1 -10 1 -5 8 13 31 8 37
-8 5 -13 -1 -15 -34 -10 -32 5 -39 3 -34 -8 10 -26 -24 -27 -40 -2 -9 13 -16
28 -16 33 0 13 -57 35 -69 27 -7 -3 -8 0 -5 9 3 9 1 16 -5 16 -6 0 -11 -4 -11
-10 0 -15 -16 -12 -34 5 -8 8 -21 15 -28 15 -8 0 -20 6 -27 13 -11 10 -14 9
-18 -1 -3 -7 -21 -19 -41 -28 -41 -17 -44 -15 -96 66 -18 30 -106 92 -106 76z
m-58 -129 c6 -9 8 -9 8 1 0 6 5 12 11 12 6 0 9 -6 7 -12 -3 -7 -22 -16 -44
-19 -39 -7 -54 1 -54 30 0 17 60 7 72 -12z m164 -3 c-9 -9 -20 -14 -23 -10 -4
3 2 13 13 20 25 18 31 12 10 -10z m-246 -9 c0 -8 -4 -15 -10 -15 -5 0 -10 7
-10 15 0 8 5 15 10 15 6 0 10 -7 10 -15z m246 -42 c-10 -10 -19 5 -10 18 6 11
8 11 12 0 2 -7 1 -15 -2 -18z m107 -3 c27 0 36 -13 17 -25 -5 -3 -10 -1 -10 5
0 12 -37 9 -59 -4 -11 -7 -13 -4 -9 12 4 12 2 22 -4 22 -5 0 -6 5 -3 11 5 7
13 5 24 -5 10 -9 30 -16 44 -16z m17 26 c0 -3 -4 -8 -10 -11 -5 -3 -10 -1 -10
4 0 6 5 11 10 11 6 0 10 -2 10 -4z m-300 -39 c0 -18 -15 -17 -15 1 0 4 -4 13
-8 19 -6 9 -3 11 7 7 9 -3 16 -15 16 -27z m338 8 c-3 -3 -9 2 -12 12 -6 14 -5
15 5 6 7 -7 10 -15 7 -18z m-315 0 c-3 -9 -8 -14 -10 -11 -3 3 -2 9 2 15 9 16
15 13 8 -4z m32 6 c3 -5 1 -12 -5 -16 -5 -3 -10 1 -10 9 0 18 6 21 15 7z m345
-1 c0 -5 -4 -10 -9 -10 -6 0 -13 5 -16 10 -3 6 1 10 9 10 9 0 16 -4 16 -10z
m75 0 c3 -5 -1 -10 -9 -10 -9 0 -16 5 -16 10 0 6 4 10 9 10 6 0 13 -4 16 -10z
m347 -17 c-10 -4 -9 -9 4 -24 16 -18 16 -19 -4 -19 -11 0 -28 7 -36 16 -24 23
-19 30 6 8 18 -16 20 -16 15 -2 -6 18 0 28 17 27 6 0 5 -3 -2 -6z m-398 -34
c-8 -13 -24 -1 -24 18 0 13 3 13 15 3 8 -7 12 -16 9 -21z m332 11 c8 0 14 -4
14 -10 0 -5 -7 -10 -15 -10 -8 0 -15 2 -15 4 0 2 -2 10 -3 18 -2 7 -2 10 0 6
3 -5 11 -8 19 -8z m-92 -5 c-7 -16 -24 -21 -24 -6 0 8 7 13 27 20 1 1 0 -6 -3
-14z m389 -21 c9 -4 17 -11 17 -16 0 -5 -6 -7 -12 -4 -7 3 -21 9 -30 12 -10 4
-18 11 -18 16 0 5 6 7 13 4 6 -3 20 -9 30 -12z m-1553 2 c0 -3 -4 -8 -10 -11
-5 -3 -10 -1 -10 4 0 6 5 11 10 11 6 0 10 -2 10 -4z m230 -5 c0 -6 -4 -13 -10
-16 -5 -3 -10 1 -10 9 0 9 5 16 10 16 6 0 10 -4 10 -9z m-470 -36 c0 -8 -4
-15 -10 -15 -5 0 -10 7 -10 15 0 8 5 15 10 15 6 0 10 -7 10 -15z m-7 -42 c-6
-15 -39 -17 -47 -4 -8 12 2 19 28 17 14 0 22 -6 19 -13z m27 -3 c0 -5 -5 -10
-11 -10 -5 0 -7 5 -4 10 3 6 8 10 11 10 2 0 4 -4 4 -10z m-252 -29 c3 -8 -1
-12 -9 -9 -7 2 -15 10 -17 17 -3 8 1 12 9 9 7 -2 15 -10 17 -17z m142 -5 c0
-15 -24 -28 -34 -19 -7 7 13 33 25 33 5 0 9 -6 9 -14z m-220 -6 c0 -5 -4 -10
-10 -10 -5 0 -10 5 -10 10 0 6 5 10 10 10 6 0 10 -4 10 -10z m2430 -30 c0 -5
-6 -10 -14 -10 -8 0 -18 5 -21 10 -3 6 3 10 14 10 12 0 21 -4 21 -10z m-2250
-20 c0 -5 -4 -10 -10 -10 -5 0 -10 5 -10 10 0 6 5 10 10 10 6 0 10 -4 10 -10z
m2285 0 c3 -5 -3 -10 -13 -10 -11 0 -25 -7 -32 -15 -16 -19 -30 -19 -30 0 0
25 63 45 75 25z m126 -16 c6 -7 8 -18 4 -24 -5 -7 -12 -5 -21 7 -8 11 -13 13
-14 5 0 -16 -40 3 -40 20 0 6 6 5 17 -3 15 -12 16 -12 11 2 -5 13 -2 16 12 12
11 -3 24 -11 31 -19z m209 -124 c0 -5 -2 -10 -4 -10 -3 0 -8 5 -11 10 -3 6 -1
10 4 10 6 0 11 -4 11 -10z m60 -5 c11 -13 10 -14 -4 -9 -9 3 -16 10 -16 15 0
13 6 11 20 -6z m67 -22 c-2 -5 4 -16 14 -26 18 -19 22 -5 6 21 -11 17 14 15
41 -4 31 -22 45 -53 46 -102 1 -33 -2 -42 -14 -39 -16 3 -17 19 -4 52 7 18 6
18 -9 6 -9 -7 -17 -20 -17 -27 0 -27 -18 -14 -22 16 -3 17 -1 30 4 30 4 0 8 4
8 8 0 12 -53 7 -58 -6 -4 -14 -22 -6 -22 9 0 6 5 7 10 4 6 -3 10 3 10 14 0 11
-4 22 -10 26 -5 3 -7 12 -3 20 3 8 0 15 -7 15 -6 0 -8 5 -5 10 7 12 39 -15 32
-27z m-223 -9 c4 -10 1 -14 -6 -12 -15 5 -23 28 -10 28 5 0 13 -7 16 -16z
m156 -10 c0 -8 -5 -14 -11 -14 -5 0 -7 -4 -4 -10 3 -6 -1 -7 -9 -4 -19 7 -21
40 -3 47 16 6 27 -1 27 -19z m50 -16 c0 -12 -14 -10 -28 4 -19 19 -14 29 8 16
11 -7 20 -16 20 -20z m-76 -35 c4 -9 4 -18 2 -20 -8 -8 -23 6 -29 26 -6 24 18
18 27 -6z m36 -12 c0 -5 -7 -14 -15 -21 -16 -14 -18 -10 -9 14 6 17 24 22 24
7z m80 -41 c0 -11 -4 -20 -9 -20 -5 0 -7 9 -4 20 3 11 7 20 9 20 2 0 4 -9 4
-20z m120 10 c0 -5 -2 -10 -4 -10 -3 0 -8 5 -11 10 -3 6 -1 10 4 10 6 0 11 -4
11 -10z m-70 -40 c0 -13 -11 -13 -30 0 -12 8 -11 10 8 10 12 0 22 -4 22 -10z
m67 -9 c0 -10 -7 -17 -13 -14 -7 3 -10 11 -7 19 8 20 22 17 20 -5z m-3484 -37
c-7 -19 -23 -7 -23 18 0 17 3 18 14 8 8 -6 12 -18 9 -26z m-156 -116 c-20 -13
-27 -9 -27 12 0 18 3 19 20 8 14 -9 16 -14 7 -20z m3733 -12 c0 -3 -4 -8 -10
-11 -5 -3 -10 -1 -10 4 0 6 5 11 10 11 6 0 10 -2 10 -4z m-3770 -16 c0 -5 7
-10 15 -10 8 0 15 -4 15 -10 0 -6 -10 -5 -25 2 -25 11 -34 28 -15 28 6 0 10
-4 10 -10z m3818 -103 c2 -10 -3 -17 -12 -17 -18 0 -29 16 -21 31 9 14 29 6
33 -14z m-4038 -7 c0 -5 -4 -10 -10 -10 -5 0 -10 5 -10 10 0 6 5 10 10 10 6 0
10 -4 10 -10z m-10 -54 c0 -2 -7 -7 -16 -10 -8 -3 -12 -2 -9 4 6 10 25 14 25
6z m4157 -12 c-3 -3 -12 -4 -19 -1 -8 3 -5 6 6 6 11 1 17 -2 13 -5z m103 -15
c0 -5 4 -8 9 -4 6 3 15 -4 22 -16 l11 -22 -31 22 c-32 23 -38 31 -21 31 6 0
10 -5 10 -11z m-110 -9 c0 -5 -8 -10 -17 -10 -15 0 -16 2 -3 10 19 12 20 12
20 0z m-4130 -40 c0 -5 -4 -10 -10 -10 -5 0 -10 5 -10 10 0 6 5 10 10 10 6 0
10 -4 10 -10z m-150 -30 c0 -5 -2 -10 -4 -10 -3 0 -8 5 -11 10 -3 6 -1 10 4
10 6 0 11 -4 11 -10z m4440 6 c0 -3 -4 -8 -10 -11 -5 -3 -10 -1 -10 4 0 6 5
11 10 11 6 0 10 -2 10 -4z m38 -35 c3 -10 0 -12 -11 -8 -9 3 -18 0 -21 -9 -7
-17 -27 -19 -23 -1 1 6 -4 11 -10 10 -20 -4 -15 15 5 20 29 8 55 3 60 -12z
m37 -1 c3 -5 -1 -10 -10 -10 -9 0 -13 5 -10 10 3 6 8 10 10 10 2 0 7 -4 10
-10z m-85 -50 c0 -5 -7 -10 -15 -10 -8 0 -15 5 -15 10 0 6 7 10 15 10 8 0 15
-4 15 -10z m-4520 -30 c0 -5 -7 -10 -16 -10 -8 0 -12 5 -9 10 3 6 10 10 16 10
5 0 9 -4 9 -10z m70 0 c0 -5 -2 -10 -4 -10 -3 0 -8 5 -11 10 -3 6 -1 10 4 10
6 0 11 -4 11 -10z m-20 -21 c0 -11 -3 -11 -24 -3 -23 9 -20 23 4 17 11 -3 20
-9 20 -14z m-15 -29 c-3 -5 -13 -10 -21 -10 -8 0 -12 5 -9 10 3 6 13 10 21 10
8 0 12 -4 9 -10z m-5 -41 c0 -5 -4 -9 -10 -9 -5 0 -10 7 -10 16 0 8 5 12 10 9
6 -3 10 -10 10 -16z m4500 -19 c0 -5 -5 -10 -11 -10 -5 0 -7 5 -4 10 3 6 8 10
11 10 2 0 4 -4 4 -10z m-2367 -60 c6 -27 27 -43 27 -20 0 16 37 11 72 -10 18
-11 40 -20 48 -19 9 0 6 4 -7 11 -23 11 -31 28 -13 28 6 0 10 -5 10 -11 0 -6
16 -10 38 -8 59 3 84 0 77 -11 -6 -10 -5 -11 30 -15 12 -1 37 -10 57 -19 39
-19 75 -14 93 11 14 19 45 6 45 -18 0 -21 15 -25 25 -8 7 11 64 3 79 -12 6 -5
20 -9 32 -9 12 0 24 -7 28 -15 6 -16 32 -21 38 -6 2 4 26 11 53 15 35 5 46 4
35 -3 -13 -9 -13 -11 2 -11 9 0 19 -6 21 -12 4 -10 8 -10 15 1 11 15 19 6 32
-37 l8 -27 1 28 1 27 20 -20 c23 -23 33 -24 60 -10 13 7 22 6 33 -4 18 -18 66
-16 59 3 -4 11 -1 11 16 2 13 -7 19 -17 16 -26 -7 -18 2 -19 20 -3 11 11 11
15 -3 25 -15 11 -15 12 1 13 9 0 20 -9 23 -20 3 -11 12 -20 19 -20 6 0 24 -6
39 -12 29 -14 37 -38 13 -38 -8 0 -18 -5 -22 -11 -5 -9 3 -10 29 -5 25 5 39 2
50 -9 9 -9 17 -11 19 -4 4 13 58 -6 58 -21 0 -5 20 -10 45 -10 38 0 45 -3 45
-20 0 -14 -7 -20 -21 -20 -19 0 -49 -21 -49 -34 0 -12 24 -6 42 11 17 15 20
15 41 -5 19 -18 31 -21 56 -16 23 5 36 3 41 -7 14 -21 -8 -49 -38 -49 -25 -1
-26 -2 -9 -15 11 -7 25 -11 33 -8 8 3 14 -1 14 -11 0 -9 -5 -16 -11 -16 -5 0
-8 -4 -4 -10 13 -22 35 3 35 41 0 21 5 39 10 39 6 0 10 -33 10 -80 0 -69 -2
-80 -17 -81 -12 0 -9 -5 10 -13 15 -7 24 -15 21 -19 -4 -4 2 -10 12 -13 10 -4
28 -16 38 -27 20 -20 20 -20 -2 -15 -15 4 -22 2 -22 -8 0 -12 -12 -14 -50 -13
-27 2 -53 0 -57 -4 -3 -4 18 -7 47 -7 41 0 57 -5 71 -22 23 -26 23 -30 2 -48
-32 -27 -72 -40 -103 -34 -19 4 -30 2 -30 -5 0 -17 -40 -13 -46 4 -7 17 -34
21 -34 5 0 -5 -4 -10 -10 -10 -30 0 24 86 60 96 l25 6 -25 10 c-19 7 -27 5
-36 -6 -9 -13 -17 -14 -45 -5 -51 17 -61 32 -16 24 23 -5 42 -3 51 4 8 7 27 9
43 6 22 -4 24 -3 8 4 -11 5 -38 8 -60 6 -22 -1 -32 -1 -22 2 9 2 17 9 17 15 0
18 -35 55 -48 50 -10 -3 -8 -8 5 -18 16 -12 16 -15 3 -24 -8 -6 -27 -8 -42 -6
-16 3 -28 1 -28 -4 0 -4 -8 -11 -17 -13 -10 -3 -3 -5 16 -6 19 0 31 -4 28 -8
-4 -3 -27 -5 -51 -5 -25 1 -48 -2 -51 -8 -8 -12 -45 -13 -45 -1 0 11 30 25 51
22 9 -1 22 6 29 15 13 14 11 16 -17 13 -17 -2 -37 2 -45 8 -12 10 -17 6 -28
-22 -14 -36 -25 -44 -33 -22 -3 9 -9 7 -24 -5 -11 -10 -27 -18 -36 -18 -9 0
-17 -8 -17 -17 0 -13 3 -14 12 -5 7 7 21 12 32 12 18 0 18 -1 3 -18 -8 -9 -21
-30 -27 -47 -6 -16 -14 -25 -18 -19 -10 14 -62 16 -78 3 -15 -12 -20 -34 -6
-26 4 3 7 -5 7 -18 0 -13 -4 -21 -9 -17 -5 3 -6 -2 -3 -12 4 -10 7 -24 7 -32
0 -11 6 -13 23 -8 21 6 22 6 4 -14 -15 -17 -23 -18 -46 -9 -17 6 -36 7 -47 1
-15 -6 -10 -9 24 -12 36 -3 42 -6 37 -20 -5 -13 -2 -12 17 4 13 10 26 24 30
29 5 6 14 4 24 -7 16 -16 16 -17 -4 -11 -16 4 -22 1 -22 -11 0 -16 13 -20 62
-16 39 2 68 -9 62 -24 -4 -9 11 -15 52 -19 65 -7 69 -9 55 -34 -9 -16 -10 -16
-11 -1 0 21 -70 22 -70 1 0 -8 6 -13 13 -12 6 1 19 1 27 0 13 -1 13 -2 0 -12
-12 -8 -11 -9 6 -5 11 4 28 0 38 -7 16 -12 16 -14 -4 -32 -12 -11 -24 -15 -28
-10 -11 16 -49 34 -56 27 -4 -3 12 -16 36 -29 24 -12 37 -22 31 -23 -19 0 -16
-30 3 -30 9 0 24 -10 35 -22 11 -14 22 -19 26 -13 13 16 83 14 83 -3 0 -11 3
-12 14 -3 7 6 20 9 29 5 8 -3 18 0 22 5 3 6 11 9 16 5 5 -3 7 -10 4 -15 -4 -5
0 -9 8 -9 8 0 20 -7 27 -15 16 -19 40 -19 40 0 0 9 6 12 16 8 13 -5 10 -11
-17 -34 l-32 -27 36 -7 c27 -5 37 -12 37 -26 0 -10 5 -21 11 -24 6 -4 8 -13 5
-21 -4 -10 4 -14 32 -14 28 0 33 3 22 10 -8 5 -10 10 -5 10 16 0 30 -13 42
-42 9 -21 9 -28 0 -32 -9 -5 -9 -7 1 -12 6 -3 12 -12 12 -20 0 -8 6 -14 13
-14 17 0 49 -39 42 -51 -4 -5 1 -12 10 -16 13 -4 15 -13 11 -34 -3 -16 -1 -29
4 -29 6 0 10 -8 10 -17 -1 -17 -1 -17 -11 -1 -5 10 -16 15 -25 11 -9 -3 -19
-2 -23 4 -10 14 -76 58 -67 45 13 -21 -12 -13 -40 13 -28 26 -40 32 -29 15 3
-5 -1 -10 -9 -10 -8 0 -18 9 -21 20 -3 11 -11 20 -17 20 -5 0 -7 7 -4 16 3 8
2 13 -3 10 -5 -3 -23 8 -41 24 -24 22 -36 28 -48 21 -10 -6 -24 -6 -34 0 -10
6 -23 7 -28 4 -6 -3 -10 -1 -10 4 0 8 -6 8 -18 0 -15 -9 -29 -7 -66 10 -54 24
-66 26 -66 11 0 -5 7 -10 17 -10 9 0 14 -3 10 -6 -3 -4 -14 -3 -24 1 -10 5
-22 7 -26 6 -4 -1 -14 5 -22 12 -9 10 -32 12 -77 9 -81 -6 -185 -5 -320 2 -73
3 -108 2 -108 -6 0 -5 -6 -8 -14 -5 -21 8 -86 -14 -86 -30 0 -7 -7 -13 -16
-13 -11 0 -15 6 -11 20 10 40 -34 10 -51 -35 -12 -29 -12 -29 -7 -3 4 22 2 26
-10 22 -8 -4 -15 -15 -15 -25 0 -10 -5 -19 -11 -19 -6 0 -10 10 -9 23 3 35 0
43 -10 27 -5 -8 -10 -27 -10 -42 0 -31 -15 -45 -24 -22 -8 22 -23 9 -23 -21 0
-27 -19 -55 -37 -55 -7 0 -29 -9 -51 -20 -22 -11 -32 -20 -22 -20 9 0 17 -5
17 -11 0 -5 -8 -9 -17 -8 -31 3 -35 -1 -19 -17 21 -20 21 -41 1 -24 -15 13
-25 8 -63 -27 -7 -7 -18 -13 -23 -13 -5 0 -9 -7 -9 -15 0 -8 5 -15 10 -15 6 0
8 -12 5 -27 -3 -16 -2 -22 1 -15 11 23 32 12 39 -20 4 -18 13 -37 19 -41 6 -5
0 -5 -14 -1 l-25 6 23 -24 c13 -14 27 -42 33 -62 6 -20 16 -36 24 -36 19 0 19
-9 -2 -32 -15 -17 -15 -18 2 -18 11 0 15 -5 12 -14 -3 -8 -1 -30 4 -48 5 -18
12 -53 14 -77 3 -25 10 -48 17 -52 9 -6 9 -11 0 -22 -10 -11 -9 -17 3 -27 10
-8 13 -21 8 -38 -4 -17 -2 -23 5 -18 15 9 32 -26 32 -67 0 -29 4 -36 26 -41
21 -6 24 -9 14 -21 -9 -11 -10 -19 -1 -28 6 -8 8 -17 4 -20 -3 -4 -1 -12 4
-19 14 -18 23 -58 13 -58 -5 0 -11 6 -13 13 -3 7 -6 5 -6 -6 -1 -9 8 -25 19
-34 11 -10 20 -25 20 -35 0 -10 6 -18 13 -18 7 -1 5 -6 -6 -14 -12 -10 -15
-16 -7 -21 6 -4 9 -14 6 -22 -5 -13 -1 -22 32 -58 6 -7 12 -21 12 -29 0 -8 9
-32 20 -51 11 -20 18 -40 15 -45 -3 -5 4 -23 17 -40 19 -26 20 -32 8 -40 -8
-5 -11 -12 -7 -16 3 -4 13 -2 20 4 19 16 51 -50 38 -76 -5 -9 -12 -25 -15 -34
-6 -20 -38 -14 -78 14 -16 11 -28 15 -28 9 0 -6 -4 -11 -10 -11 -5 0 -10 7
-10 15 0 8 -4 15 -10 15 -5 0 -10 -9 -10 -19 0 -17 -5 -19 -32 -15 -37 6 -148
-20 -158 -37 -5 -7 -24 -7 -65 0 -69 13 -77 13 -50 0 17 -8 15 -9 -9 -5 -17 2
-35 -2 -44 -10 -7 -8 -18 -11 -24 -8 -6 4 -5 10 3 16 10 6 7 7 -10 3 -13 -4
-33 -2 -45 4 -17 9 -37 9 -89 -2 -37 -7 -67 -10 -67 -6 0 10 -33 -1 -41 -13
-5 -8 -21 -10 -84 -7 -34 1 -82 28 -100 55 -15 23 -16 32 -5 65 11 33 15 37
28 26 13 -10 14 -8 10 17 -5 22 -2 30 13 33 12 3 19 14 19 29 0 13 5 24 11 24
5 0 8 4 4 10 -3 5 6 17 20 26 34 22 32 37 -7 52 -32 12 -32 13 -13 28 17 13
18 16 5 24 -37 24 -159 -6 -160 -39 0 -7 -6 -11 -15 -7 -9 3 -15 0 -15 -9 0
-8 -4 -16 -10 -16 -5 -1 -16 -2 -22 -3 -7 -1 -12 -7 -11 -13 1 -6 -11 -16 -27
-21 -16 -6 -40 -28 -54 -49 -34 -53 -65 -79 -104 -87 -35 -8 -39 -15 -19 -35
10 -11 6 -12 -23 -6 -26 4 -31 3 -20 -4 13 -10 13 -11 0 -12 -8 -1 -19 -1 -24
0 -5 1 -6 -5 -2 -14 5 -13 0 -15 -31 -9 -32 6 -35 5 -29 -11 4 -13 2 -16 -9
-12 -8 4 -17 2 -21 -4 -3 -6 -13 -8 -21 -5 -17 7 -65 -6 -130 -35 -36 -15 -43
-16 -53 -4 -7 8 -16 12 -21 9 -5 -3 -17 0 -26 5 -16 9 -16 10 5 11 12 0 22 6
22 14 0 8 6 17 13 19 7 4 8 6 1 6 -6 1 -17 -6 -24 -14 -7 -8 -19 -15 -27 -15
-17 0 -43 -24 -43 -39 0 -6 -4 -11 -10 -11 -5 0 -10 9 -10 20 0 11 5 20 10 20
6 0 10 5 10 10 0 24 -32 7 -47 -25 -14 -29 -20 -34 -41 -28 -22 5 -24 4 -17
-13 5 -10 9 -37 10 -59 l2 -40 -4 38 c-5 41 -19 50 -26 15 -3 -21 -4 -21 -12
-4 -5 12 -3 21 6 26 7 5 10 12 7 15 -11 12 -26 -4 -33 -35 -6 -27 -10 -30 -46
-30 -22 0 -39 5 -39 11 0 7 -11 9 -30 6 -16 -4 -32 -2 -35 3 -3 5 -18 5 -37
-1 -17 -5 -34 -6 -37 -4 -7 8 32 34 52 35 9 0 17 5 17 11 0 5 -5 7 -10 4 -6
-4 -22 1 -36 10 -14 9 -32 14 -40 11 -12 -4 -14 -1 -9 14 10 30 -16 51 -51 41
-29 -8 -29 -8 -29 33 0 23 -4 44 -9 48 -5 3 -11 15 -12 25 -1 10 -5 29 -9 43
-3 14 -8 52 -11 85 -3 33 -9 85 -13 115 -12 75 -7 351 7 425 7 33 19 96 28
140 21 110 27 146 28 176 1 19 5 25 16 21 13 -5 13 -3 1 11 -18 23 -7 34 15
16 19 -15 18 -8 -1 46 -5 15 0 13 20 -9 26 -28 27 -29 23 -6 -2 18 3 25 22 31
l25 6 -25 11 c-14 6 -18 11 -10 11 8 0 26 -8 40 -19 14 -11 21 -20 16 -20 -5
0 -3 -6 3 -14 9 -10 8 -16 -4 -26 -8 -7 -15 -18 -15 -25 0 -8 -6 -15 -12 -18
-10 -3 -10 -7 0 -20 8 -9 11 -21 7 -27 -4 -7 -9 -31 -12 -55 -6 -56 19 -99 51
-89 19 6 19 5 7 -10 -13 -15 -13 -19 -1 -26 8 -5 18 -6 23 -3 15 9 127 11 122
3 -3 -5 8 -11 24 -15 37 -8 54 -28 46 -55 -5 -17 -2 -20 19 -20 14 0 26 -4 26
-10 0 -5 13 -10 29 -10 17 0 33 -4 36 -10 3 -5 27 -11 53 -11 29 -1 37 -4 20
-6 -43 -7 -33 -23 13 -23 25 0 46 -6 53 -15 9 -12 40 -15 149 -17 89 -1 141 2
145 9 4 5 21 13 37 16 59 11 165 45 180 57 12 10 22 8 55 -14 40 -26 80 -34
80 -16 0 6 -11 10 -25 10 -14 0 -25 5 -25 10 0 14 41 12 65 -3 11 -7 20 -19
20 -27 0 -8 11 -17 25 -21 14 -4 18 -7 10 -8 -10 -1 -6 -9 13 -26 15 -14 27
-30 27 -35 0 -6 6 -10 14 -10 11 0 13 9 9 35 -5 30 -3 35 13 35 16 0 17 2 4
10 -11 7 -6 8 16 4 30 -6 32 -4 39 33 5 21 8 41 7 45 -1 4 4 5 12 2 7 -3 16 2
20 11 3 9 2 13 -4 10 -17 -10 -11 12 7 31 11 10 16 29 14 49 -1 18 3 36 9 40
9 6 9 10 -1 17 -11 6 -9 8 6 6 17 -3 21 4 23 35 3 34 6 37 25 31 18 -6 20 -4
10 7 -11 14 -13 32 -10 139 1 48 14 64 72 87 27 10 27 12 7 12 -29 1 -26 34 3
39 11 3 24 10 28 18 4 8 20 15 35 15 17 1 20 3 10 6 -10 2 -18 9 -18 14 0 6
-4 7 -10 4 -5 -3 -25 -8 -44 -10 -33 -4 -34 -4 -22 20 7 15 12 19 14 11 3 -12
8 -12 26 -2 13 6 32 20 42 31 21 21 24 21 -45 -1 -15 -5 -18 -1 -18 20 0 21 3
25 18 21 11 -4 19 -2 19 4 0 14 -47 14 -55 1 -7 -12 -45 10 -45 27 0 6 9 15
20 18 11 3 20 10 20 14 0 12 -50 32 -61 25 -6 -3 -9 2 -7 12 3 19 -3 21 -35 9
-13 -6 -17 -3 -14 14 2 11 6 24 10 27 13 13 7 44 -7 44 -8 0 -17 6 -20 13 -4
6 -4 2 -2 -10 3 -20 1 -21 -15 -12 -22 11 -25 25 -6 32 6 2 9 8 5 12 -4 4 -14
2 -23 -5 -16 -13 -19 -6 -15 35 2 18 0 18 -21 -4 -16 -17 -24 -20 -27 -12 -3
8 1 17 8 21 7 4 9 13 5 20 -5 8 -12 7 -24 -4 -16 -15 -18 -14 -17 6 1 24 -24
32 -32 10 -2 -8 2 -10 13 -6 15 6 15 4 4 -14 -8 -13 -16 -17 -20 -11 -4 8 -9
8 -14 0 -4 -8 -18 0 -38 22 -18 19 -37 32 -44 30 -6 -2 -14 1 -18 6 -10 17
-35 13 -35 -6 0 -15 -2 -14 -15 3 -10 13 -17 15 -22 8 -5 -6 -20 -14 -35 -18
-21 -5 -30 -1 -42 16 -12 17 -18 19 -30 9 -11 -9 -24 -10 -53 -2 -50 14 -53
14 -53 -5 0 -13 -7 -15 -37 -9 -21 4 -42 7 -48 6 -5 -1 -60 -3 -121 -4 -61 -2
-116 -7 -123 -11 -21 -14 -72 -25 -66 -15 4 5 -5 5 -21 -1 -15 -6 -36 -8 -48
-5 -17 5 -18 4 -6 -4 13 -9 12 -11 -5 -11 -11 0 -38 -12 -60 -27 -56 -37 -144
-121 -136 -129 3 -4 0 -4 -7 1 -15 8 -64 -14 -57 -25 8 -13 -23 -32 -50 -32
-27 0 -50 -21 -40 -38 7 -12 -5 -13 -21 -2 -12 7 -1 97 18 137 5 11 7 31 6 45
-2 18 2 25 13 24 12 -1 16 9 17 45 3 107 6 121 27 121 15 0 16 3 7 12 -18 18
-15 38 6 39 10 0 12 3 5 6 -18 7 -16 43 1 43 8 0 17 -6 19 -12 4 -10 6 -10 6
-1 1 6 -3 15 -9 18 -5 3 -10 13 -10 21 0 11 6 14 23 9 14 -4 18 -3 9 3 -7 5
-10 17 -7 28 6 18 6 18 -8 2 -8 -10 -21 -18 -30 -18 -10 0 -13 -6 -10 -20 3
-12 -2 -29 -12 -40 -9 -10 -15 -22 -12 -27 3 -4 -1 -14 -9 -21 -12 -11 -15
-10 -21 4 -3 9 -2 19 3 23 5 3 14 21 21 39 11 31 10 33 -9 27 -17 -6 -18 -4
-9 13 6 12 11 38 11 60 0 27 5 42 16 46 13 5 14 9 4 21 -13 16 -8 20 40 28
l25 4 -26 2 c-36 1 -66 45 -47 68 12 15 11 15 -10 4 -22 -12 -23 -11 -13 8 6
11 9 26 8 33 -2 7 -2 9 1 5 2 -5 10 1 18 12 8 11 27 22 42 24 15 3 4 4 -24 2
-29 -1 -56 -5 -61 -8 -5 -4 -10 0 -10 8 0 8 8 15 18 15 10 0 21 5 24 10 4 6
-5 10 -19 10 -14 0 -26 5 -26 10 0 6 9 10 20 10 28 0 25 20 -2 21 -16 1 -18 3
-7 6 16 4 33 42 24 52 -3 2 -5 -1 -5 -7 0 -7 -7 -12 -15 -12 -8 0 -15 3 -15 6
0 11 29 34 44 34 9 0 16 5 16 11 0 6 -8 8 -17 5 -10 -3 -24 -2 -32 3 -11 7 -9
10 8 16 22 7 30 35 10 35 -8 0 -8 5 1 15 7 8 10 26 8 40 -3 13 -2 23 1 21 3
-2 12 2 19 10 11 12 10 15 -2 20 -25 10 -18 22 9 16 30 -5 34 17 9 43 -15 15
-14 15 9 10 23 -6 27 -3 34 26 10 36 42 63 50 41 7 -18 21 -5 38 34 9 22 21
34 34 34 11 0 23 5 26 10 3 6 17 10 30 10 13 0 27 5 30 10 5 8 11 7 21 -1 11
-9 14 -8 15 2 0 10 2 11 6 2 7 -20 19 -15 31 12 13 27 42 34 42 10 0 -8 -6
-15 -12 -15 -9 0 -8 -4 2 -10 12 -7 16 -4 20 18 4 20 12 28 30 29 21 2 40 5
83 12 5 0 5 6 1 13 -5 8 5 9 39 5 38 -5 47 -4 47 8 0 8 9 15 19 15 10 0 22 7
25 16 4 10 13 13 25 9 11 -3 22 -1 26 5 3 5 15 10 26 10 10 0 27 5 37 11 13 8
32 9 65 1 26 -5 47 -6 47 -1 0 5 -4 9 -10 9 -5 0 -10 5 -10 10 0 6 10 10 23
10 13 0 28 5 35 12 8 8 15 8 26 -1 10 -8 16 -9 21 -1 3 5 17 10 30 10 18 0 23
-4 19 -15 -8 -20 20 -20 36 0 9 11 17 12 31 4 11 -5 24 -7 31 -3 6 4 29 8 52
9 96 5 150 28 89 38 l-28 4 28 2 c21 1 30 -4 34 -18 3 -12 13 -18 29 -17 29 1
30 4 7 23 -16 12 -15 13 17 12 19 -1 50 -1 69 0 29 1 32 3 21 16 -20 24 -5 29
45 18 39 -9 44 -8 33 4 -9 11 -9 16 2 23 19 12 26 5 33 -30z m57 20 c0 -5 -11
-10 -25 -10 -14 0 -25 5 -25 10 0 6 11 10 25 10 14 0 25 -4 25 -10z m300 -58
c3 -3 -8 -2 -25 2 -16 4 -34 12 -40 17 -5 5 6 4 25 -2 19 -7 37 -14 40 -17z
m2193 -36 c7 -20 6 -31 -3 -39 -10 -9 -12 -8 -7 5 3 10 2 20 -3 23 -4 3 -10
-1 -12 -7 -3 -7 -5 2 -5 20 0 38 17 37 30 -2z m-1879 -17 c5 -5 7 -11 5 -14
-7 -7 -59 18 -59 28 0 10 40 -1 54 -14z m-1479 -19 c3 -5 1 -10 -4 -10 -6 0
-11 5 -11 10 0 6 2 10 4 10 3 0 8 -4 11 -10z m2253 -262 c-6 -18 -28 -21 -28
-4 0 9 7 16 16 16 9 0 14 -5 12 -12z m1142 -8 c0 -5 -2 -10 -4 -10 -3 0 -8 5
-11 10 -3 6 -1 10 4 10 6 0 11 -4 11 -10z m70 -94 c0 -3 -4 -8 -10 -11 -5 -3
-10 -1 -10 4 0 6 5 11 10 11 6 0 10 -2 10 -4z m-5120 -86 c0 -5 -5 -10 -11
-10 -5 0 -7 5 -4 10 3 6 8 10 11 10 2 0 4 -4 4 -10z m5179 -16 c18 -17 8 -31
-11 -15 -7 7 -22 19 -33 27 -19 15 -19 15 5 8 14 -3 31 -12 39 -20z m-4269 6
c0 -5 -7 -10 -15 -10 -8 0 -15 5 -15 10 0 6 7 10 15 10 8 0 15 -4 15 -10z
m4286 -96 c2 -31 0 -35 -11 -23 -8 8 -11 25 -8 42 7 36 15 28 19 -19z m-1061
-4 c3 -5 1 -10 -4 -10 -6 0 -11 5 -11 10 0 6 2 10 4 10 3 0 8 -4 11 -10z
m-4180 -30 c-3 -5 -10 -10 -16 -10 -5 0 -9 5 -9 10 0 6 7 10 16 10 8 0 12 -4
9 -10z m3851 -62 c-6 -4 -18 -7 -26 -7 -10 0 -8 3 5 9 l20 9 -20 0 c-16 1 -17
3 -6 10 9 6 19 5 26 -2 10 -9 10 -14 1 -19z m-208 5 c-21 -2 -38 -9 -38 -14 0
-6 -5 -7 -11 -3 -18 11 12 24 51 22 l35 -1 -37 -4z m139 1 c-3 -3 -12 -4 -19
-1 -8 3 -5 6 6 6 11 1 17 -2 13 -5z m1464 -41 c-12 -20 -14 -14 -5 12 4 9 9
14 11 11 3 -2 0 -13 -6 -23z m-5221 7 c0 -5 -2 -10 -4 -10 -3 0 -8 5 -11 10
-3 6 -1 10 4 10 6 0 11 -4 11 -10z m3700 -15 c0 -8 -4 -15 -9 -15 -13 0 -22
16 -14 24 11 11 23 6 23 -9z m460 -25 c9 -17 8 -20 -7 -20 -26 0 -47 16 -39
29 11 17 34 13 46 -9z m-681 -16 c-13 -16 -39 -19 -39 -4 0 6 7 10 15 10 8 0
15 5 15 11 0 5 5 7 10 4 8 -5 7 -11 -1 -21z m61 16 c0 -5 -4 -10 -10 -10 -5 0
-10 5 -10 10 0 6 5 10 10 10 6 0 10 -4 10 -10z m1680 -21 c0 -5 -4 -9 -10 -9
-5 0 -10 7 -10 16 0 8 5 12 10 9 6 -3 10 -10 10 -16z m-1603 5 c-3 -3 -12 -4
-19 -1 -8 3 -5 6 6 6 11 1 17 -2 13 -5z m403 -3 c-15 -9 -99 -15 -130 -10 -15
2 70 14 120 17 19 1 21 -1 10 -7z m-305 -21 c3 -5 -1 -10 -10 -10 -9 0 -13 5
-10 10 3 6 8 10 10 10 2 0 7 -4 10 -10z m262 -16 c-3 -3 -12 -4 -19 -1 -8 3
-5 6 6 6 11 1 17 -2 13 -5z m188 -4 c3 -5 -1 -10 -9 -10 -9 0 -16 5 -16 10 0
6 4 10 9 10 6 0 13 -4 16 -10z m-445 -10 c0 -5 -12 -10 -27 -9 -25 0 -26 1 -8
9 27 12 35 12 35 0z m180 0 c0 -5 -7 -7 -15 -4 -8 4 -15 8 -15 10 0 2 7 4 15
4 8 0 15 -4 15 -10z m-323 -16 c-3 -3 -12 -4 -19 -1 -8 3 -5 6 6 6 11 1 17 -2
13 -5z m-36 -22 c-18 -2 -37 0 -42 5 -5 5 11 6 34 3 41 -4 41 -5 8 -8z m553 3
c-21 -16 -64 -20 -64 -6 0 6 15 12 33 14 17 2 36 5 41 5 6 1 1 -5 -10 -13z
m-281 -22 c-7 -2 -19 -2 -25 0 -7 3 -2 5 12 5 14 0 19 -2 13 -5z m194 -9 c-3
-3 -12 -4 -19 -1 -8 3 -5 6 6 6 11 1 17 -2 13 -5z m103 -14 c0 -5 -4 -10 -9
-10 -6 0 -13 5 -16 10 -3 6 1 10 9 10 9 0 16 -4 16 -10z m-103 -16 c-3 -3 -12
-4 -19 -1 -8 3 -5 6 6 6 11 1 17 -2 13 -5z m1243 -4 c0 -5 -4 -10 -10 -10 -5
0 -10 5 -10 10 0 6 5 10 10 10 6 0 10 -4 10 -10z m-1130 -20 c12 -8 9 -10 -13
-10 -16 0 -26 4 -22 10 8 12 16 12 35 0z m-380 -40 c0 -5 -2 -10 -4 -10 -3 0
-8 5 -11 10 -3 6 -1 10 4 10 6 0 11 -4 11 -10z m0 -36 c0 -8 -5 -12 -10 -9 -6
4 -8 11 -5 16 9 14 15 11 15 -7z m43 9 c-7 -2 -19 -2 -25 0 -7 3 -2 5 12 5 14
0 19 -2 13 -5z m257 -3 c0 -5 -5 -10 -11 -10 -5 0 -7 5 -4 10 3 6 8 10 11 10
2 0 4 -4 4 -10z m-224 -27 c-10 -10 -19 5 -10 18 6 11 8 11 12 0 2 -7 1 -15
-2 -18z m1370 -20 c-10 -10 -19 5 -10 18 6 11 8 11 12 0 2 -7 1 -15 -2 -18z
m-1396 7 c0 -5 -5 -10 -11 -10 -5 0 -7 5 -4 10 3 6 8 10 11 10 2 0 4 -4 4 -10z
m114 -16 c7 -19 2 -18 -19 6 -16 17 -16 20 -3 15 9 -4 19 -13 22 -21z m-67
-10 c-3 -3 -12 -4 -19 -1 -8 3 -5 6 6 6 11 1 17 -2 13 -5z m273 0 c21 -5 27
-9 19 -15 -7 -4 -19 -3 -26 3 -7 5 -20 8 -28 4 -8 -3 -15 -1 -15 4 0 12 7 12
50 4z m-320 -19 c0 -8 -7 -15 -15 -15 -16 0 -20 12 -8 23 11 12 23 8 23 -8z
m-53 -11 c-3 -3 -12 -4 -19 -1 -8 3 -5 6 6 6 11 1 17 -2 13 -5z m330 -26 c-3
-8 -6 -5 -6 6 -1 11 2 17 5 13 3 -3 4 -12 1 -19z m1143 8 c0 -3 -4 -8 -10 -11
-5 -3 -10 -1 -10 4 0 6 5 11 10 11 6 0 10 -2 10 -4z m-30 -34 c0 -5 -12 -14
-27 -21 l-28 -11 24 20 c26 22 31 24 31 12z m-987 -9 c-7 -2 -19 -2 -25 0 -7
3 -2 5 12 5 14 0 19 -2 13 -5z m-186 -69 c-3 -3 -12 -4 -19 -1 -8 3 -5 6 6 6
11 1 17 -2 13 -5z m-2567 -84 c0 -5 -4 -10 -10 -10 -5 0 -10 5 -10 10 0 6 5
10 10 10 6 0 10 -4 10 -10z m3630 -31 c0 -5 -4 -9 -10 -9 -5 0 -10 7 -10 16 0
8 5 12 10 9 6 -3 10 -10 10 -16z m-35 1 c3 -5 1 -10 -4 -10 -6 0 -11 5 -11 10
0 6 2 10 4 10 3 0 8 -4 11 -10z m5 -30 c0 -5 -2 -10 -4 -10 -3 0 -8 5 -11 10
-3 6 -1 10 4 10 6 0 11 -4 11 -10z m60 -5 c0 -8 -7 -15 -16 -15 -8 0 -12 -4
-9 -10 3 -5 -1 -10 -10 -10 -14 0 -14 3 2 25 21 28 33 32 33 10z m30 -15 c0
-5 -9 -14 -20 -20 -22 -12 -27 -1 -8 18 14 14 28 16 28 2z m-2135 -20 c3 -5 1
-10 -4 -10 -6 0 -11 5 -11 10 0 6 2 10 4 10 3 0 8 -4 11 -10z m2145 -9 c0 -12
-20 -25 -27 -18 -7 7 6 27 18 27 5 0 9 -4 9 -9z m-5050 -101 c0 -5 -7 -10 -16
-10 -8 0 -12 5 -9 10 3 6 10 10 16 10 5 0 9 -4 9 -10z m4960 -10 c0 -5 -5 -10
-11 -10 -5 0 -7 5 -4 10 3 6 8 10 11 10 2 0 4 -4 4 -10z m-4900 -184 c0 -8 6
-16 13 -19 6 -2 9 -8 5 -12 -10 -10 -49 25 -42 36 8 14 24 10 24 -5z m1485
-166 c-3 -5 -12 -10 -20 -10 -7 0 -15 -10 -17 -22 -2 -13 -6 -18 -9 -13 -12
18 9 55 31 55 12 0 18 -4 15 -10z m3295 2 c0 -10 -22 -32 -32 -32 -5 0 -3 9 4
20 13 20 28 27 28 12z m-1440 -36 c0 -3 -4 -8 -10 -11 -5 -3 -10 -1 -10 4 0 6
5 11 10 11 6 0 10 -2 10 -4z m-34 -43 c-11 -11 -19 6 -11 24 8 17 8 17 12 0 3
-10 2 -21 -1 -24z m874 33 c0 -3 -4 -8 -10 -11 -5 -3 -10 -1 -10 4 0 6 5 11
10 11 6 0 10 -2 10 -4z m-2495 -46 c3 -5 1 -10 -4 -10 -6 0 -11 5 -11 10 0 6
2 10 4 10 3 0 8 -4 11 -10z m-395 -9 c0 -6 -5 -13 -10 -16 -8 -5 -7 -11 1 -21
13 -16 -7 -28 -38 -22 -27 5 -30 38 -3 38 11 0 23 7 26 15 7 16 24 21 24 6z
m2296 -27 c-5 -12 -1 -14 15 -9 20 7 20 6 2 -12 -18 -18 -18 -18 -30 6 -16 30
-16 31 3 31 11 0 14 -5 10 -16z m-420 -19 c-4 -14 -2 -25 4 -25 5 0 10 -4 10
-10 0 -20 -41 -10 -49 13 -10 27 -5 38 14 30 8 -3 15 0 15 6 0 6 3 11 6 11 3
0 3 -11 0 -25z m1044 -137 c0 -18 -5 -28 -15 -28 -17 0 -18 4 -9 50 8 37 24
22 24 -22z m-50 -12 c0 -2 -8 -10 -17 -17 -16 -13 -17 -12 -4 4 13 16 21 21
21 13z m-154 -51 c13 -14 27 -25 32 -25 6 0 13 -8 17 -17 6 -17 7 -17 20 1 12
16 16 16 27 5 7 -8 13 -25 13 -39 0 -20 4 -24 22 -22 12 2 24 -2 28 -8 12 -20
25 -10 25 20 0 30 -13 40 -25 20 -5 -8 -11 -7 -21 1 -11 9 -11 13 1 25 7 8 21
14 29 14 9 0 16 5 16 10 0 17 -38 11 -49 -7 -9 -17 -10 -17 -17 0 -7 20 -1 30
23 33 9 2 26 5 37 8 25 6 59 -12 39 -21 -18 -7 -16 -23 2 -23 16 0 21 -16 7
-22 -5 -1 -12 -20 -15 -41 -5 -31 -3 -38 8 -33 8 3 15 1 15 -4 0 -6 -13 -10
-30 -10 -16 0 -30 -4 -30 -10 0 -5 11 -10 24 -10 13 0 29 -7 36 -15 10 -12 6
-13 -24 -8 -24 4 -36 2 -36 -6 0 -6 12 -11 27 -11 l26 0 -29 -25 c-28 -24 -27
-40 4 -40 25 0 24 -68 0 -73 -11 -2 -18 3 -18 12 0 9 -7 16 -15 16 -8 0 -15
-5 -15 -10 0 -6 7 -13 15 -16 8 -4 15 -12 15 -20 0 -17 -12 -18 -28 -2 -9 9
-12 8 -12 -5 0 -12 8 -17 27 -17 21 0 24 -3 15 -12 -16 -16 -15 -28 2 -28 11
0 10 -8 -5 -40 -11 -22 -24 -40 -29 -40 -6 0 -11 -15 -11 -32 -1 -18 -3 -25
-6 -15 -2 9 -9 17 -15 17 -6 0 -17 -8 -24 -17 -12 -16 -13 -16 -14 -1 0 9 6
19 13 22 8 3 7 8 -5 16 -10 6 -18 23 -19 38 0 15 -3 21 -6 15 -3 -8 -23 -13
-46 -13 l-42 0 33 -16 c17 -9 32 -20 32 -25 0 -12 -51 -23 -59 -13 -7 11 -56
12 -67 2 -4 -5 7 -8 25 -8 18 0 41 -9 53 -20 12 -11 28 -20 35 -20 7 0 13 -4
13 -8 0 -18 -14 -22 -34 -9 -18 11 -23 11 -38 -4 -16 -17 -16 -18 0 -22 12 -3
10 -5 -6 -6 -12 0 -25 -8 -28 -16 -4 -8 -12 -15 -19 -15 -7 0 -15 7 -19 15 -6
17 -36 21 -36 4 0 -6 9 -13 20 -16 24 -6 24 -7 8 -34 -10 -17 -10 -23 0 -26
20 -7 14 -23 -9 -23 -16 0 -20 5 -16 19 5 20 -9 51 -23 51 -6 0 -10 -7 -10
-15 0 -12 -7 -14 -27 -9 -27 6 -27 6 -8 -9 11 -8 23 -13 27 -11 5 3 8 1 8 -5
0 -17 -19 -22 -39 -11 -42 22 -69 -19 -29 -44 14 -8 20 -7 31 8 13 18 37 15
37 -3 0 -12 -50 -32 -62 -25 -6 4 -14 0 -19 -7 -5 -9 -24 -13 -54 -12 -35 1
-44 -1 -36 -11 7 -8 4 -12 -12 -13 -36 -2 -68 7 -62 17 3 6 -6 11 -22 12 -70
3 -82 6 -104 21 -29 21 -40 22 -33 2 4 -11 2 -13 -9 -9 -8 3 -18 1 -22 -5 -8
-14 -45 -14 -45 -1 0 6 9 10 19 10 42 0 27 16 -16 18 -25 1 -52 7 -59 13 -8 6
-20 9 -28 6 -19 -8 -56 20 -56 42 0 10 -9 21 -21 24 -11 3 -25 19 -32 36 -6
16 -19 32 -30 35 -14 3 -17 10 -12 25 3 12 2 21 -4 21 -5 0 -21 11 -35 25 -14
14 -33 25 -42 25 -10 0 -14 5 -10 16 3 8 2 13 -3 10 -5 -3 -11 4 -14 15 -3 11
-15 23 -26 26 -12 3 -21 11 -21 18 0 7 -9 15 -20 18 -12 3 -20 14 -20 25 0 12
-5 24 -10 27 -6 4 -8 15 -5 25 3 10 1 21 -5 25 -5 3 -10 26 -10 51 0 32 -4 44
-15 44 -9 0 -15 9 -14 23 0 19 1 20 12 5 10 -15 12 -15 24 0 11 15 14 15 26 2
7 -9 25 -14 46 -12 27 3 33 0 28 -12 -3 -8 -2 -18 4 -21 5 -4 13 4 18 17 7 16
10 18 10 6 1 -16 15 -21 96 -33 36 -6 38 -5 23 8 -10 8 -18 20 -18 27 0 7 -8
10 -20 7 -29 -8 -34 9 -8 27 29 21 35 20 41 -4 3 -11 10 -20 17 -20 7 0 9 8 5
20 -4 11 -2 20 4 20 6 0 11 -5 11 -11 0 -5 4 -8 9 -5 5 4 11 2 13 -4 1 -5 17
-14 35 -19 26 -7 31 -7 26 5 -4 11 1 11 32 -2 31 -13 39 -13 46 -2 8 12 13 4
10 -14 -1 -10 16 -10 23 0 7 12 104 13 112 1 5 -8 8 -8 13 0 4 6 21 13 38 17
25 5 32 2 36 -12 4 -17 5 -16 6 2 1 21 28 31 104 39 20 3 36 15 19 15 -7 0
-12 5 -12 10 0 6 9 10 20 10 11 0 20 4 20 9 0 5 23 11 51 15 50 7 64 14 97 48
12 13 18 14 23 6 10 -15 18 -8 22 18 7 50 37 58 73 19z m-3426 -30 c0 -8 -4
-15 -10 -15 -5 0 -7 7 -4 15 4 8 8 15 10 15 2 0 4 -7 4 -15z m1200 -15 c-8 -5
-19 -10 -25 -10 -5 0 -3 5 5 10 8 5 20 10 25 10 6 0 3 -5 -5 -10z m2470 -31
c0 -5 -4 -9 -10 -9 -5 0 -10 7 -10 16 0 8 5 12 10 9 6 -3 10 -10 10 -16z
m-2530 1 c-20 -13 -33 -13 -25 0 3 6 14 10 23 10 15 0 15 -2 2 -10z m1383 -57
c-7 -2 -19 -2 -25 0 -7 3 -2 5 12 5 14 0 19 -2 13 -5z m1144 -175 c-3 -8 -6
-5 -6 6 -1 11 2 17 5 13 3 -3 4 -12 1 -19z m-7 -82 c0 -19 0 -19 -14 -1 -8 11
-11 25 -8 33 4 11 6 11 13 0 5 -7 9 -22 9 -32z m557 -108 c-3 -7 -5 -2 -5 12
0 14 2 19 5 13 2 -7 2 -19 0 -25z m-730 -20 c-3 -8 -6 -5 -6 6 -1 11 2 17 5
13 3 -3 4 -12 1 -19z m-2087 -18 c0 -5 -4 -10 -10 -10 -5 0 -10 5 -10 10 0 6
5 10 10 10 6 0 10 -4 10 -10z m2200 -30 c0 -22 -4 -40 -9 -40 -4 0 -8 18 -8
40 0 22 4 40 8 40 5 0 9 -18 9 -40z m-110 14 c0 -8 -5 -12 -10 -9 -6 4 -8 11
-5 16 9 14 15 11 15 -7z m150 -14 c0 -5 -4 -10 -10 -10 -5 0 -10 5 -10 10 0 6
5 10 10 10 6 0 10 -4 10 -10z m-144 -36 c-4 -9 -9 -15 -11 -12 -3 3 -3 13 1
22 4 9 9 15 11 12 3 -3 3 -13 -1 -22z m50 -1 c-10 -10 -19 5 -10 18 6 11 8 11
12 0 2 -7 1 -15 -2 -18z m-2136 7 c0 -5 -4 -10 -10 -10 -5 0 -10 5 -10 10 0 6
5 10 10 10 6 0 10 -4 10 -10z m2037 -16 c-3 -3 -12 -4 -19 -1 -8 3 -5 6 6 6
11 1 17 -2 13 -5z m133 -59 c0 -5 -5 -3 -10 5 -5 8 -10 20 -10 25 0 6 5 3 10
-5 5 -8 10 -19 10 -25z m-93 -41 c-3 -3 -12 -4 -19 -1 -8 3 -5 6 6 6 11 1 17
-2 13 -5z m-62 -14 c3 -5 1 -10 -4 -10 -6 0 -11 5 -11 10 0 6 2 10 4 10 3 0 8
-4 11 -10z m-528 -75 c8 -9 13 -19 9 -22 -7 -7 -36 16 -36 28 0 13 10 11 27
-6z m1115 -17 c-7 -7 -12 -8 -12 -2 0 14 12 26 19 19 2 -3 -1 -11 -7 -17z
m-3052 2 c0 -5 -5 -10 -11 -10 -5 0 -7 5 -4 10 3 6 8 10 11 10 2 0 4 -4 4 -10z
m-870 -40 c0 -5 -4 -10 -10 -10 -5 0 -10 5 -10 10 0 6 5 10 10 10 6 0 10 -4
10 -10z m430 -59 c15 -28 12 -33 -10 -19 -21 13 -27 38 -10 38 5 0 14 -9 20
-19z m3450 9 c-20 -13 -33 -13 -25 0 3 6 14 10 23 10 15 0 15 -2 2 -10z
m-3843 -35 c23 -24 11 -26 -17 -5 -14 11 -19 20 -12 20 7 0 20 -7 29 -15z
m3838 -24 c-3 -6 -11 -11 -17 -11 -6 0 -6 6 2 15 14 17 26 13 15 -4z m-3710
-22 c4 -6 13 -8 21 -5 8 3 14 0 14 -7 0 -9 -11 -12 -35 -9 -34 4 -42 11 -28
25 9 10 21 8 28 -4z m1035 -13 c0 -11 -19 -15 -25 -6 -3 5 1 10 9 10 9 0 16
-2 16 -4z m-120 -37 c0 -27 2 -30 15 -19 13 10 15 9 15 -9 0 -28 -34 -63 -49
-48 -7 7 -12 5 -17 -8 -5 -11 -3 -20 4 -23 7 -2 12 -8 12 -14 0 -6 -9 -3 -20
7 -24 22 -26 60 -4 69 25 9 41 7 24 -4 -13 -8 -12 -10 3 -10 18 0 23 15 8 24
-15 10 -19 66 -4 66 8 0 13 -12 13 -31z m-912 -7 c3 -9 -3 -13 -19 -10 -12 1
-24 9 -27 16 -3 9 3 13 19 10 12 -1 24 -9 27 -16z m872 -7 c0 -17 -39 -45 -60
-44 -10 0 -11 2 -2 6 7 3 19 18 28 34 15 29 34 31 34 4z m120 -65 c0 -5 -2
-10 -4 -10 -3 0 -8 5 -11 10 -3 6 -1 10 4 10 6 0 11 -4 11 -10z m10 -40 c0 -5
-8 -10 -17 -10 -15 0 -16 2 -3 10 19 12 20 12 20 0z m-1340 -61 c0 -6 -4 -7
-10 -4 -5 3 -10 11 -10 16 0 6 5 7 10 4 6 -3 10 -11 10 -16z m28 -84 c-3 -3
-9 2 -12 12 -6 14 -5 15 5 6 7 -7 10 -15 7 -18z m19 -97 c-3 -7 -5 -2 -5 12 0
14 2 19 5 13 2 -7 2 -19 0 -25z m1773 -28 c0 -5 -7 -7 -15 -4 -8 4 -12 10 -9
15 6 11 24 2 24 -11z m2080 16 c0 -3 -4 -8 -10 -11 -5 -3 -10 -1 -10 4 0 6 5
11 10 11 6 0 10 -2 10 -4z m-3814 -102 c-9 -9 -17 -10 -21 -4 -3 5 -1 10 4 10
6 0 11 12 12 28 0 27 0 27 10 4 6 -17 5 -27 -5 -38z m1922 -236 c4 -21 -33
-38 -79 -38 -33 0 -39 -15 -9 -23 11 -3 20 -1 20 3 0 14 150 6 159 -9 6 -9 11
-10 15 -2 4 6 4 16 1 21 -9 15 8 12 31 -5 22 -16 48 -20 39 -5 -3 6 -2 10 4
10 40 0 -18 -73 -69 -86 -14 -4 -36 -15 -50 -24 -29 -20 -69 -31 -126 -33 -22
-1 -48 -8 -57 -15 -11 -10 -21 -11 -35 -3 -11 6 -33 6 -53 2 -53 -12 -117 2
-134 29 -3 5 -11 8 -16 5 -5 -4 -12 1 -15 9 -3 9 -16 16 -28 16 -17 0 -19 2
-6 11 12 9 11 10 -7 6 -18 -4 -23 -1 -23 16 -1 22 -1 22 -17 2 -15 -19 -15
-18 -10 19 4 21 8 41 11 43 8 9 67 9 72 1 3 -4 25 -8 50 -8 25 0 54 -5 64 -10
10 -6 21 -6 24 -1 3 4 24 6 46 4 22 -2 40 0 40 6 0 5 8 12 18 14 10 3 7 4 -8
4 -14 -1 -48 5 -75 12 -81 21 -83 22 -55 33 40 15 101 20 115 8 9 -7 15 -7 23
2 7 9 29 12 74 8 49 -4 64 -9 66 -22z m1782 -80 c0 -18 -2 -20 -9 -8 -6 8 -7
18 -5 22 9 14 14 9 14 -14z m-3695 -48 c3 -5 1 -10 -4 -10 -6 0 -11 5 -11 10
0 6 2 10 4 10 3 0 8 -4 11 -10z m204 -1349 c-17 -26 -24 -27 -26 -1 -1 11 2
18 8 15 12 -8 11 1 -2 28 l-11 22 22 -21 c19 -19 20 -24 9 -43z m-295 -224 c6
-23 4 -28 -11 -25 -10 2 -18 -3 -17 -9 1 -7 2 -25 3 -39 1 -22 3 -25 16 -14
13 11 15 3 15 -59 0 -46 -4 -71 -11 -71 -8 0 -10 17 -7 50 3 28 1 50 -3 50 -5
0 -9 -18 -9 -40 0 -25 -5 -40 -12 -41 -10 0 -10 -2 0 -6 6 -2 12 -13 12 -24 0
-16 4 -17 25 -9 18 7 25 6 26 -3 1 -6 4 -23 6 -37 6 -30 11 -86 12 -120 1 -20
3 -22 11 -10 8 12 10 10 11 -10 1 -14 2 -32 1 -40 0 -8 4 -18 11 -22 8 -5 8
-10 -1 -21 -9 -10 -8 -18 3 -33 13 -16 14 -16 9 -1 -3 9 -2 17 3 17 4 0 13
-20 19 -45 6 -25 7 -45 2 -45 -4 0 -3 -9 4 -19 7 -11 16 -17 21 -14 6 4 7 -5
3 -21 -5 -19 -2 -28 9 -32 10 -4 13 -13 10 -25 -4 -13 -1 -19 8 -19 10 0 14
-11 12 -40 -2 -41 11 -63 25 -40 5 7 8 1 8 -16 0 -19 10 -38 34 -59 19 -18 33
-36 31 -42 -2 -5 3 -23 12 -39 10 -20 15 -24 15 -11 0 11 5 15 11 11 6 -3 9
-15 6 -25 -3 -12 2 -23 14 -29 10 -6 19 -18 19 -28 0 -13 2 -14 9 -4 10 17 21
-6 21 -46 0 -19 3 -23 9 -14 7 11 10 10 15 -3 3 -9 3 -22 -1 -27 -3 -7 -1 -8
6 -4 6 4 14 0 18 -10 3 -10 14 -25 22 -35 36 -39 52 -65 48 -81 -3 -10 0 -15
8 -12 7 3 17 -7 23 -23 5 -16 18 -38 28 -48 10 -10 23 -26 29 -36 36 -61 90
-145 97 -147 4 -2 8 -8 8 -13 0 -4 27 -50 60 -100 33 -50 60 -95 60 -101 0
-14 -32 -3 -145 48 -22 10 -56 27 -75 39 -19 11 -52 26 -72 33 -68 24 -204
109 -313 197 -27 22 -55 45 -62 50 -7 6 -30 24 -52 40 -22 17 -40 36 -41 44 0
8 -3 11 -7 8 -3 -4 -11 3 -18 16 -6 12 -19 21 -29 20 -11 0 -15 4 -12 13 3 9
-4 16 -20 20 -15 4 -23 12 -20 20 5 14 -17 37 -27 28 -4 -4 -27 15 -52 42 -26
27 -69 72 -96 100 -27 28 -49 56 -49 61 0 6 -11 22 -25 37 -14 15 -25 29 -25
32 0 3 -25 38 -55 79 -30 41 -56 80 -57 87 -2 7 -7 16 -13 21 -6 4 -5 10 3 15
9 7 8 13 -8 27 -11 10 -20 31 -20 46 0 15 -5 31 -10 34 -6 4 -8 9 -6 13 2 4
-2 40 -9 80 -6 40 -8 75 -4 78 5 3 9 20 9 39 0 19 5 37 11 40 6 4 8 13 5 21
-4 10 2 14 18 14 23 0 46 33 46 66 0 10 6 13 19 9 20 -6 36 18 24 38 -4 6 0 8
9 4 17 -6 58 18 58 34 0 6 9 22 20 36 18 24 20 24 27 7 6 -17 8 -17 13 5 3 13
15 28 28 32 18 7 22 5 22 -11 0 -11 -5 -20 -12 -20 -9 0 -9 -3 1 -12 10 -11
16 -8 32 12 53 66 52 65 58 47 4 -11 10 -14 20 -7 20 11 54 -7 47 -25 -3 -8
-1 -17 4 -20 6 -4 10 7 10 24 0 20 -5 31 -14 31 -9 0 -12 7 -9 20 3 11 10 20
15 20 5 0 8 6 7 13 -3 25 1 38 11 32 6 -3 10 -1 10 6 0 18 6 7 14 -24z m-94
-17 c0 -5 -4 -10 -10 -10 -5 0 -10 5 -10 10 0 6 5 10 10 10 6 0 10 -4 10 -10z
m100 -35 c0 -8 -4 -15 -10 -15 -5 0 -10 7 -10 15 0 8 5 15 10 15 6 0 10 -7 10
-15z m-440 -225 c0 -5 -2 -10 -4 -10 -3 0 -8 5 -11 10 -3 6 -1 10 4 10 6 0 11
-4 11 -10z m950 -760 c0 -5 -4 -10 -10 -10 -5 0 -10 5 -10 10 0 6 5 10 10 10
6 0 10 -4 10 -10z m62 -79 c17 -26 24 -31 26 -19 2 10 9 15 18 11 8 -3 14 1
14 11 0 26 25 19 41 -11 8 -16 18 -31 23 -34 4 -4 3 -15 -3 -25 -6 -11 -11
-13 -11 -7 0 13 -34 13 -46 0 -13 -13 -44 -7 -44 9 0 8 4 12 10 9 5 -3 22 1
37 9 23 12 25 16 11 21 -9 4 -28 -1 -43 -11 -26 -17 -28 -17 -40 -1 -14 20
-31 22 -38 5 -3 -8 -6 -6 -6 5 -1 9 4 17 9 17 15 0 12 21 -6 41 -15 16 -14 17
5 12 11 -3 31 -22 43 -42z m3017 -43 c0 -13 -3 -17 -6 -10 -7 18 -23 15 -24
-5 0 -11 -3 -13 -6 -5 -6 15 -39 16 -48 1 -9 -14 35 -61 52 -55 7 3 10 -1 6
-10 -3 -9 1 -14 13 -14 14 0 15 -3 6 -12 -17 -17 -15 -47 3 -54 8 -4 15 -10
15 -15 0 -6 -10 -5 -22 2 -18 10 -20 9 -15 -5 5 -12 -1 -19 -18 -26 -14 -5
-25 -14 -25 -19 0 -5 -10 -11 -22 -15 -13 -3 -29 -14 -35 -25 -11 -18 -10 -19
4 -14 15 6 16 5 3 -9 -8 -8 -20 -13 -27 -11 -7 3 -15 -6 -19 -21 -3 -14 -15
-28 -25 -31 -10 -4 -19 -10 -19 -15 0 -9 -56 -40 -73 -40 -6 0 -2 7 9 16 18
14 18 15 -3 4 -13 -6 -22 -14 -22 -18 3 -19 -2 -23 -16 -12 -13 11 -14 10 -10
-3 4 -8 2 -18 -4 -22 -6 -3 -11 -1 -11 4 0 6 -4 11 -10 11 -6 0 -9 -5 -8 -11
2 -6 -3 -14 -11 -17 -11 -4 -13 3 -8 34 4 21 11 40 17 42 5 2 10 10 10 18 0
16 16 19 25 3 5 -7 14 -4 27 7 16 16 21 16 29 4 7 -11 8 -9 6 10 -3 19 -11 26
-34 28 -27 3 -29 6 -25 33 3 17 11 33 18 36 8 3 14 14 14 24 0 11 7 22 15 25
8 4 15 14 15 24 0 19 48 60 70 60 7 0 10 7 6 15 -4 11 3 15 27 17 l32 1 -32 4
c-40 5 -46 33 -7 30 19 -1 27 3 30 16 4 26 6 28 58 31 25 1 49 5 53 9 13 14
23 7 22 -15z m-3019 -20 c0 -12 22 -33 35 -33 21 0 105 -50 105 -62 0 -7 5
-13 11 -13 7 0 9 10 5 26 l-7 26 23 -25 c13 -14 34 -28 48 -32 22 -5 21 -2
-12 27 l-38 33 39 1 c28 0 38 -4 37 -15 -1 -10 7 -16 19 -16 11 -1 19 -7 17
-14 -1 -7 3 -20 10 -28 10 -13 13 -12 20 6 6 17 11 19 25 12 10 -5 27 -12 38
-16 15 -5 17 -8 6 -15 -10 -6 1 -11 35 -15 57 -9 98 -28 114 -52 8 -13 13 -14
16 -5 8 17 24 15 24 -3 0 -8 5 -16 10 -16 6 -1 15 -2 21 -3 6 0 16 -9 23 -18
7 -10 15 -16 18 -13 4 4 84 -50 124 -83 22 -19 55 -33 64 -27 6 3 10 1 10 -4
0 -6 -7 -11 -15 -11 -8 0 -15 -4 -15 -10 0 -5 6 -10 14 -10 7 0 29 -11 49 -24
44 -30 83 -44 72 -26 -5 9 -4 11 4 6 7 -5 10 -19 6 -36 -5 -22 -2 -28 15 -33
17 -4 20 -2 15 13 -5 15 -2 17 16 13 15 -4 20 -3 15 5 -5 8 1 12 14 12 12 0
18 -4 15 -10 -3 -5 1 -10 9 -10 9 0 16 -6 17 -12 1 -7 4 -2 8 12 4 14 13 24
19 23 7 -2 17 -4 24 -5 6 -2 16 6 22 18 10 18 13 19 24 7 7 -7 10 -18 7 -23
-10 -16 5 -12 36 11 20 14 27 16 23 6 -7 -20 29 -31 56 -17 11 6 20 18 20 26
0 14 2 14 16 0 8 -9 27 -16 42 -15 l27 1 -25 8 c-18 6 -6 8 40 8 46 0 56 -2
35 -7 -25 -6 -27 -8 -10 -13 39 -11 92 -8 104 6 17 21 51 8 51 -19 0 -24 17
-35 56 -35 13 0 24 -4 24 -9 0 -19 35 -21 59 -3 37 27 77 35 100 20 16 -10 27
-10 54 0 18 7 42 12 53 11 17 0 17 -1 -3 -11 -30 -14 -29 -25 2 -30 13 -3 22
-1 19 4 -3 5 0 9 7 7 34 -4 42 0 29 16 -11 13 -8 15 14 15 14 0 26 -4 26 -10
0 -5 -4 -10 -8 -10 -5 0 -9 -7 -9 -15 0 -23 22 -12 25 13 2 12 8 22 13 22 17
0 28 44 15 59 -9 12 -8 13 7 8 10 -4 22 -7 27 -7 5 0 11 -8 13 -17 3 -11 5 -7
6 10 1 19 8 30 26 37 15 6 28 21 34 42 9 31 9 31 10 7 1 -29 28 -46 45 -29 7
7 3 10 -13 10 -12 0 -19 4 -16 10 4 6 11 8 16 5 5 -4 18 -4 28 0 14 4 18 14
17 38 -1 28 2 32 27 33 25 1 25 1 2 -3 -18 -3 -25 -11 -25 -26 1 -20 2 -20 13
-6 11 15 15 15 49 1 22 -10 39 -25 41 -37 3 -20 4 -20 12 -1 6 13 5 21 -3 24
-15 5 -16 122 -2 122 6 0 10 -18 10 -40 0 -22 3 -40 6 -40 17 0 63 43 66 62 3
24 53 44 64 26 10 -16 -14 -34 -28 -20 -17 17 -33 15 -18 -3 7 -8 9 -15 4 -15
-5 0 0 -7 11 -16 12 -9 16 -18 10 -22 -20 -14 -36 -64 -25 -77 13 -16 2 -45
-17 -45 -11 0 -14 -8 -11 -30 3 -22 1 -29 -8 -26 -14 5 -30 -47 -19 -64 3 -5
0 -7 -8 -5 -7 3 -21 -3 -31 -14 -17 -19 -17 -19 6 -14 18 4 20 3 8 -6 -8 -6
-23 -8 -33 -5 -10 3 -19 -1 -23 -10 -7 -17 -34 -22 -34 -6 0 6 -10 10 -21 10
-17 0 -19 -3 -10 -14 16 -18 -35 -40 -75 -31 -22 5 -25 4 -14 -4 13 -9 11 -11
-7 -11 -12 0 -30 -3 -40 -6 -16 -5 -16 -4 2 12 18 15 18 16 2 10 -10 -3 -23
-6 -28 -6 -6 0 -7 -4 -4 -10 3 -5 -1 -10 -9 -10 -9 0 -16 4 -16 9 0 5 -12 6
-27 2 -16 -5 -27 -14 -25 -21 1 -6 -3 -10 -10 -7 -7 2 -12 10 -10 17 2 7 -3
10 -10 8 -51 -20 -61 -20 -55 -4 4 10 3 15 -3 11 -6 -3 -10 -15 -10 -26 0 -12
-7 -19 -19 -19 -11 0 -23 -4 -26 -10 -3 -5 -18 -10 -33 -10 l-27 1 28 15 c35
19 30 28 -8 14 -15 -6 -51 -13 -78 -16 -58 -5 -68 -11 -47 -25 12 -9 11 -9 -5
-4 -35 13 -95 13 -88 1 4 -6 0 -5 -9 2 -10 8 -19 9 -22 3 -3 -5 -2 -11 4 -13
5 -1 -41 -4 -103 -5 -61 -2 -148 -4 -192 -6 -47 -1 -83 2 -87 8 -5 6 -8 6 -8
-2 0 -7 -5 -13 -11 -13 -5 0 -7 5 -4 10 3 6 2 10 -4 10 -5 0 -12 -6 -15 -12
-5 -10 -7 -10 -12 0 -3 6 -10 12 -15 12 -6 0 -7 -6 -4 -12 4 -7 0 -5 -8 5 -8
9 -25 17 -38 16 -13 0 -18 -3 -11 -6 25 -10 11 -20 -25 -17 -21 1 -51 2 -66 3
-18 1 -26 5 -21 12 4 8 1 8 -12 1 -13 -7 -50 -7 -109 0 -49 5 -104 10 -121 12
-42 4 -48 9 -95 72 -22 31 -55 64 -72 74 -18 11 -47 32 -65 47 -19 16 -41 31
-50 35 -67 27 -124 -35 -73 -79 11 -9 18 -20 15 -25 -3 -4 2 -18 10 -30 23
-33 20 -37 -21 -27 -23 5 -49 21 -66 41 -29 34 -97 133 -97 142 0 2 -38 62
-85 132 -47 71 -88 140 -91 154 -12 51 -16 60 -25 55 -5 -4 -8 2 -7 12 3 34
-2 53 -13 53 -6 0 -8 -9 -4 -22 7 -23 7 -23 -8 -3 -9 11 -11 22 -6 23 12 5 12
32 0 32 -5 0 -11 -6 -14 -12 -2 -7 -4 1 -3 18 1 21 5 30 14 27 6 -3 12 -9 12
-15z m147 -32 c-15 -32 -31 -35 -22 -3 4 12 9 31 12 41 5 16 7 17 14 4 5 -9 4
-26 -4 -42z m2378 -135 c3 -5 1 -12 -5 -16 -5 -3 -10 1 -10 9 0 18 6 21 15 7z
m-100 -31 c-3 -5 -10 -10 -16 -10 -5 0 -9 5 -9 10 0 6 7 10 16 10 8 0 12 -4 9
-10z m-150 -58 c-8 -8 -25 10 -19 20 4 6 9 5 15 -3 4 -7 6 -15 4 -17z m165 20
c0 -13 -12 -22 -22 -16 -10 6 -1 24 13 24 5 0 9 -4 9 -8z m-90 -17 c0 -8 -7
-15 -15 -15 -8 0 -15 7 -15 15 0 8 7 15 15 15 8 0 15 -7 15 -15z m190 -15 c0
-5 -4 -10 -10 -10 -5 0 -10 5 -10 10 0 6 5 10 10 10 6 0 10 -4 10 -10z m-360
-39 c0 -19 -41 -60 -55 -54 -24 9 -19 36 5 28 16 -5 20 -2 20 14 0 12 7 21 15
21 8 0 15 -4 15 -9z m540 -1 c0 -5 -7 -10 -15 -10 -8 0 -15 5 -15 10 0 6 7 10
15 10 8 0 15 -4 15 -10z m-204 -26 c-4 -9 -9 -15 -11 -12 -3 3 -3 13 1 22 4 9
9 15 11 12 3 -3 3 -13 -1 -22z m-288 5 c-2 -6 -8 -10 -13 -10 -5 0 -11 4 -13
10 -2 6 4 11 13 11 9 0 15 -5 13 -11z m-118 -79 c0 -5 -2 -10 -4 -10 -3 0 -8
5 -11 10 -3 6 -1 10 4 10 6 0 11 -4 11 -10z m520 -20 c0 -5 -4 -10 -10 -10 -5
0 -10 5 -10 10 0 6 5 10 10 10 6 0 10 -4 10 -10z m-905 -70 c3 -5 1 -10 -4
-10 -6 0 -11 5 -11 10 0 6 2 10 4 10 3 0 8 -4 11 -10z"/>
<path d="M4345 10480 c-16 -7 -17 -9 -3 -9 9 -1 20 4 23 9 7 11 7 11 -20 0z"/>
<path d="M5320 10480 c8 -5 20 -10 25 -10 6 0 3 5 -5 10 -8 5 -19 10 -25 10
-5 0 -3 -5 5 -10z"/>
<path d="M4230 10470 c0 -5 5 -10 10 -10 6 0 10 5 10 10 0 6 -4 10 -10 10 -5
0 -10 -4 -10 -10z"/>
<path d="M4588 10473 c7 -3 16 -2 19 1 4 3 -2 6 -13 5 -11 0 -14 -3 -6 -6z"/>
<path d="M4100 10410 c0 -5 5 -10 11 -10 5 0 7 5 4 10 -3 6 -8 10 -11 10 -2 0
-4 -4 -4 -10z"/>
<path d="M6000 10330 c0 -5 5 -10 10 -10 6 0 10 5 10 10 0 6 -4 10 -10 10 -5
0 -10 -4 -10 -10z"/>
<path d="M6240 10240 c0 -5 5 -10 10 -10 6 0 10 5 10 10 0 6 -4 10 -10 10 -5
0 -10 -4 -10 -10z"/>
<path d="M6080 10190 c0 -5 5 -10 10 -10 6 0 10 5 10 10 0 6 -4 10 -10 10 -5
0 -10 -4 -10 -10z"/>
<path d="M6120 10171 c0 -5 9 -11 21 -14 16 -4 18 -3 8 9 -13 16 -29 19 -29 5z"/>
<path d="M6385 10150 c3 -5 11 -10 16 -10 6 0 7 5 4 10 -3 6 -11 10 -16 10 -6
0 -7 -4 -4 -10z"/>
<path d="M6160 10130 c0 -5 9 -10 19 -10 11 0 23 5 26 10 4 6 -5 10 -19 10
-14 0 -26 -4 -26 -10z"/>
<path d="M6340 10120 c0 -5 7 -10 15 -10 8 0 15 5 15 10 0 6 -7 10 -15 10 -8
0 -15 -4 -15 -10z"/>
<path d="M6188 10093 c12 -2 30 -2 40 0 9 3 -1 5 -23 4 -22 0 -30 -2 -17 -4z"/>
<path d="M6384 10089 c-3 -5 6 -9 20 -9 31 0 34 6 6 13 -11 3 -23 1 -26 -4z"/>
<path d="M3600 10079 c0 -5 5 -7 10 -4 6 3 10 8 10 11 0 2 -4 4 -10 4 -5 0
-10 -5 -10 -11z"/>
<path d="M3487 10066 c-4 -10 -5 -21 -2 -24 9 -9 17 6 13 25 -3 17 -4 17 -11
-1z"/>
<path d="M6168 10073 c7 -3 16 -2 19 1 4 3 -2 6 -13 5 -11 0 -14 -3 -6 -6z"/>
<path d="M6307 10073 c-10 -9 -9 -23 2 -23 5 0 11 7 15 15 5 15 -5 20 -17 8z"/>
<path d="M6249 10068 c-12 -38 6 -69 32 -53 8 6 7 10 -2 17 -11 7 -11 11 -1
15 15 6 6 23 -14 23 -8 0 -14 -1 -15 -2z"/>
<path d="M6370 10050 c0 -5 4 -10 9 -10 6 0 13 5 16 10 3 6 -1 10 -9 10 -9 0
-16 -4 -16 -10z"/>
<path d="M6311 10031 c-21 -13 -4 -33 18 -21 19 10 41 -4 41 -26 0 -16 56 -59
90 -69 23 -7 23 -6 -6 19 -18 14 -37 26 -43 26 -6 0 -11 7 -11 15 0 20 16 19
56 -5 20 -13 35 -17 39 -11 3 6 -5 13 -19 17 -13 3 -27 12 -30 20 -3 7 -12 11
-20 8 -8 -3 -25 1 -38 9 -33 21 -61 28 -77 18z"/>
<path d="M3455 10010 c-3 -5 -1 -10 4 -10 6 0 11 5 11 10 0 6 -2 10 -4 10 -3
0 -8 -4 -11 -10z"/>
<path d="M6218 10003 c7 -3 16 -2 19 1 4 3 -2 6 -13 5 -11 0 -14 -3 -6 -6z"/>
<path d="M6168 9993 c7 -3 16 -2 19 1 4 3 -2 6 -13 5 -11 0 -14 -3 -6 -6z"/>
<path d="M6210 9981 c0 -12 35 -20 50 -11 8 5 7 9 -5 14 -24 9 -45 8 -45 -3z"/>
<path d="M6000 9926 c0 -2 9 -6 20 -9 11 -3 20 -1 20 4 0 5 -9 9 -20 9 -11 0
-20 -2 -20 -4z"/>
<path d="M3835 9868 c6 -14 2 -18 -16 -19 -19 -1 -20 -2 -5 -6 25 -7 44 13 27
30 -10 10 -11 9 -6 -5z"/>
<path d="M6458 9853 c7 -3 16 -2 19 1 4 3 -2 6 -13 5 -11 0 -14 -3 -6 -6z"/>
<path d="M6530 9850 c19 -13 30 -13 30 0 0 6 -10 10 -22 10 -19 0 -20 -2 -8
-10z"/>
<path d="M4008 9843 c7 -3 16 -2 19 1 4 3 -2 6 -13 5 -11 0 -14 -3 -6 -6z"/>
<path d="M5821 9841 c-11 -7 -11 -10 0 -17 7 -4 14 -3 17 4 2 6 11 8 20 5 15
-4 15 -3 2 6 -18 13 -21 13 -39 2z"/>
<path d="M6392 9841 c-10 -6 -11 -13 -1 -34 13 -29 49 -37 49 -11 0 13 7 15
33 10 17 -3 39 -2 46 3 15 10 9 12 -59 24 -14 2 -32 7 -40 11 -8 3 -21 2 -28
-3z m48 -21 c0 -5 -9 -10 -20 -10 -11 0 -20 5 -20 10 0 6 9 10 20 10 11 0 20
-4 20 -10z"/>
<path d="M5943 9833 c11 -10 57 -13 57 -2 0 5 -14 9 -32 9 -17 0 -28 -3 -25
-7z"/>
<path d="M5900 9822 c-19 -6 -40 -32 -40 -49 0 -8 13 -2 32 16 33 30 35 42 8
33z"/>
<path d="M3485 9810 c-3 -5 3 -10 14 -10 12 0 21 5 21 10 0 6 -6 10 -14 10 -8
0 -18 -4 -21 -10z"/>
<path d="M5802 9789 c2 -7 10 -15 17 -17 8 -3 12 1 9 9 -2 7 -10 15 -17 17 -8
3 -12 -1 -9 -9z"/>
<path d="M3946 9776 c3 -9 18 -16 32 -16 29 0 20 14 -15 25 -18 5 -22 3 -17
-9z"/>
<path d="M4020 9770 c0 -5 5 -10 11 -10 5 0 7 5 4 10 -3 6 -8 10 -11 10 -2 0
-4 -4 -4 -10z"/>
<path d="M3848 9763 c6 -2 18 -2 25 0 6 3 1 5 -13 5 -14 0 -19 -2 -12 -5z"/>
<path d="M5798 9753 c6 -2 18 -2 25 0 6 3 1 5 -13 5 -14 0 -19 -2 -12 -5z"/>
<path d="M3470 9725 c0 -8 5 -15 10 -15 6 0 10 7 10 15 0 8 -4 15 -10 15 -5 0
-10 -7 -10 -15z"/>
<path d="M3511 9724 c0 -11 3 -14 6 -6 3 7 2 16 -1 19 -3 4 -6 -2 -5 -13z"/>
<path d="M3757 9733 c-4 -3 -7 -11 -7 -17 0 -6 5 -5 12 2 6 6 9 14 7 17 -3 3
-9 2 -12 -2z"/>
<path d="M3945 9730 c3 -5 13 -10 21 -10 8 0 14 5 14 10 0 6 -9 10 -21 10 -11
0 -17 -4 -14 -10z"/>
<path d="M3696 9723 c-12 -12 -6 -33 9 -33 8 0 15 6 15 14 0 17 -14 28 -24 19z"/>
<path d="M3795 9710 c-3 -5 1 -10 9 -10 9 0 16 5 16 10 0 6 -4 10 -9 10 -6 0
-13 -4 -16 -10z"/>
<path d="M4070 9710 c0 -5 7 -7 15 -4 8 4 15 8 15 10 0 2 -7 4 -15 4 -8 0 -15
-4 -15 -10z"/>
<path d="M5340 9706 c0 -9 7 -16 16 -16 9 0 14 5 12 12 -6 18 -28 21 -28 4z"/>
<path d="M5780 9697 c27 -15 80 -30 80 -23 0 3 -15 9 -32 14 -18 6 -42 13 -53
17 -12 4 -10 1 5 -8z"/>
<path d="M5548 9683 c7 -3 16 -2 19 1 4 3 -2 6 -13 5 -11 0 -14 -3 -6 -6z"/>
<path d="M3778 9673 c6 -2 18 -2 25 0 6 3 1 5 -13 5 -14 0 -19 -2 -12 -5z"/>
<path d="M5406 9659 c-19 -19 -19 -19 2 -19 12 0 22 6 22 13 0 8 4 7 10 -3 8
-12 10 -11 10 8 0 27 -18 28 -44 1z"/>
<path d="M5325 9650 c-8 -13 25 -13 45 0 12 8 9 10 -12 10 -15 0 -30 -4 -33
-10z"/>
<path d="M5270 9628 c0 -9 -10 -19 -22 -21 -14 -3 -10 -4 10 -4 35 1 37 4 22
27 -8 13 -10 13 -10 -2z"/>
<path d="M3825 9620 c-3 -5 -1 -10 4 -10 6 0 11 5 11 10 0 6 -2 10 -4 10 -3 0
-8 -4 -11 -10z"/>
<path d="M5944 9595 c8 -8 19 -15 25 -15 17 0 13 17 -5 24 -27 10 -36 7 -20
-9z"/>
<path d="M6028 9593 c7 -3 16 -2 19 1 4 3 -2 6 -13 5 -11 0 -14 -3 -6 -6z"/>
<path d="M3895 9560 c3 -5 8 -10 11 -10 2 0 4 5 4 10 0 6 -5 10 -11 10 -5 0
-7 -4 -4 -10z"/>
<path d="M6056 9551 c-3 -5 1 -12 10 -15 20 -8 29 -1 19 13 -8 13 -22 14 -29
2z"/>
<path d="M6000 9539 c0 -5 5 -7 10 -4 6 3 10 8 10 11 0 2 -4 4 -10 4 -5 0 -10
-5 -10 -11z"/>
<path d="M3600 9494 c0 -8 5 -12 10 -9 6 4 8 11 5 16 -9 14 -15 11 -15 -7z"/>
<path d="M6080 9439 c0 -5 5 -7 10 -4 6 3 10 8 10 11 0 2 -4 4 -10 4 -5 0 -10
-5 -10 -11z"/>
<path d="M6360 9340 c0 -5 5 -10 11 -10 5 0 7 5 4 10 -3 6 -8 10 -11 10 -2 0
-4 -4 -4 -10z"/>
<path d="M6380 9310 c0 -5 5 -10 10 -10 6 0 10 5 10 10 0 6 -4 10 -10 10 -5 0
-10 -4 -10 -10z"/>
<path d="M5718 9193 c7 -3 16 -2 19 1 4 3 -2 6 -13 5 -11 0 -14 -3 -6 -6z"/>
<path d="M5837 9189 c7 -7 15 -10 18 -7 3 3 -2 9 -12 12 -14 6 -15 5 -6 -5z"/>
<path d="M5898 9183 c7 -3 16 -2 19 1 4 3 -2 6 -13 5 -11 0 -14 -3 -6 -6z"/>
<path d="M5968 9183 c6 -2 18 -2 25 0 6 3 1 5 -13 5 -14 0 -19 -2 -12 -5z"/>
<path d="M6270 9160 c0 -5 7 -10 15 -10 8 0 15 5 15 10 0 6 -7 10 -15 10 -8 0
-15 -4 -15 -10z"/>
<path d="M3460 8990 c0 -5 4 -10 9 -10 6 0 13 5 16 10 3 6 -1 10 -9 10 -9 0
-16 -4 -16 -10z"/>
<path d="M4960 8990 c0 -5 5 -10 10 -10 6 0 10 5 10 10 0 6 -4 10 -10 10 -5 0
-10 -4 -10 -10z"/>
<path d="M4920 8935 c0 -8 5 -15 10 -15 6 0 10 7 10 15 0 8 -4 15 -10 15 -5 0
-10 -7 -10 -15z"/>
<path d="M5023 8913 c-24 -9 -14 -25 11 -19 18 4 28 1 35 -11 10 -17 10 -17
11 -1 0 14 -29 40 -42 37 -2 0 -9 -3 -15 -6z"/>
<path d="M3390 8629 c0 -5 5 -7 10 -4 6 3 10 8 10 11 0 2 -4 4 -10 4 -5 0 -10
-5 -10 -11z"/>
<path d="M4438 8193 c7 -3 16 -2 19 1 4 3 -2 6 -13 5 -11 0 -14 -3 -6 -6z"/>
<path d="M4626 7908 c7 -10 91 -11 98 0 2 4 -20 8 -49 8 -30 1 -52 -3 -49 -8z"/>
<path d="M4645 7870 c3 -5 19 -10 35 -10 16 0 32 5 35 10 4 6 -10 10 -35 10
-25 0 -39 -4 -35 -10z"/>
<path d="M4620 7851 c0 -5 7 -11 14 -14 10 -4 13 -1 9 9 -6 15 -23 19 -23 5z"/>
<path d="M4698 7823 c7 -3 16 -2 19 1 4 3 -2 6 -13 5 -11 0 -14 -3 -6 -6z"/>
<path d="M4698 7773 c7 -3 16 -2 19 1 4 3 -2 6 -13 5 -11 0 -14 -3 -6 -6z"/>
<path d="M3352 7558 c5 -15 28 -23 28 -10 0 5 -7 13 -16 16 -10 4 -14 1 -12
-6z"/>
<path d="M3870 7530 c0 -5 5 -10 10 -10 6 0 10 5 10 10 0 6 -4 10 -10 10 -5 0
-10 -4 -10 -10z"/>
<path d="M3710 7490 c0 -16 4 -30 9 -30 5 0 11 14 13 30 3 20 0 30 -9 30 -8 0
-13 -12 -13 -30z"/>
<path d="M3280 7490 c0 -5 11 -9 24 -8 14 1 22 6 20 10 -7 12 -44 10 -44 -2z"/>
<path d="M3780 7490 c0 -5 4 -10 9 -10 6 0 13 5 16 10 3 6 -1 10 -9 10 -9 0
-16 -4 -16 -10z"/>
<path d="M3352 7459 c2 -7 10 -15 17 -17 8 -3 12 1 9 9 -2 7 -10 15 -17 17 -8
3 -12 -1 -9 -9z"/>
<path d="M3526 7454 c-4 -10 -1 -14 6 -12 15 5 23 28 10 28 -5 0 -13 -7 -16
-16z"/>
<path d="M3920 7459 c0 -6 -9 -9 -19 -6 -10 2 -24 1 -31 -3 -8 -5 -3 -10 14
-14 18 -4 32 -2 41 8 17 17 19 26 5 26 -5 0 -10 -5 -10 -11z"/>
<path d="M3464 7408 c3 -7 9 -21 12 -30 5 -15 34 -26 34 -14 0 21 -23 56 -36
56 -9 0 -13 -5 -10 -12z"/>
<path d="M6796 8015 c4 -8 11 -15 16 -15 6 0 5 6 -2 15 -7 8 -14 15 -16 15 -2
0 -1 -7 2 -15z"/>
<path d="M6770 7980 c0 -5 7 -10 15 -10 8 0 15 5 15 10 0 6 -7 10 -15 10 -8 0
-15 -4 -15 -10z"/>
<path d="M6775 7930 c-3 -5 -1 -10 4 -10 6 0 11 5 11 10 0 6 -2 10 -4 10 -3 0
-8 -4 -11 -10z"/>
<path d="M6720 7900 c0 -5 5 -10 10 -10 6 0 10 5 10 10 0 6 -4 10 -10 10 -5 0
-10 -4 -10 -10z"/>
<path d="M6762 7818 c2 -13 8 -23 13 -23 6 0 11 10 13 23 2 15 -2 22 -13 22
-11 0 -15 -7 -13 -22z"/>
<path d="M6360 7665 c0 -8 5 -15 10 -15 6 0 10 7 10 15 0 8 -4 15 -10 15 -5 0
-10 -7 -10 -15z"/>
<path d="M6471 7666 c-9 -10 -8 -15 4 -20 10 -4 15 1 15 14 0 24 -4 25 -19 6z"/>
<path d="M6400 7630 c0 -5 5 -10 11 -10 5 0 7 5 4 10 -3 6 -8 10 -11 10 -2 0
-4 -4 -4 -10z"/>
<path d="M6360 7571 c0 -39 14 -47 29 -15 16 35 14 44 -9 44 -15 0 -20 -7 -20
-29z"/>
<path d="M6215 7520 c-19 -8 -19 -9 3 -9 12 -1 22 4 22 9 0 6 -1 10 -2 9 -2 0
-12 -4 -23 -9z"/>
<path d="M6321 7516 c10 -9 79 -14 79 -5 0 5 -19 9 -42 9 -23 0 -39 -2 -37 -4z"/>
<path d="M3160 4572 c0 -7 -7 -12 -16 -12 -8 0 -12 -5 -8 -11 4 -7 11 -6 22 5
9 8 13 19 9 22 -4 4 -7 2 -7 -4z"/>
<path d="M3015 3720 c3 -5 8 -10 11 -10 2 0 4 5 4 10 0 6 -5 10 -11 10 -5 0
-7 -4 -4 -10z"/>
<path d="M3630 3570 c0 -5 5 -10 10 -10 6 0 10 5 10 10 0 6 -4 10 -10 10 -5 0
-10 -4 -10 -10z"/>
<path d="M6688 3543 c-16 -2 -28 -10 -28 -18 0 -7 -10 -15 -22 -19 -20 -5 -48
-45 -48 -69 0 -18 25 1 31 24 3 13 12 23 19 21 17 -4 80 40 80 56 0 6 -1 11
-2 11 -2 -1 -15 -4 -30 -6z"/>
<path d="M6510 3530 c0 -5 5 -10 11 -10 5 0 7 5 4 10 -3 6 -8 10 -11 10 -2 0
-4 -4 -4 -10z"/>
<path d="M6560 3515 c0 -8 2 -15 4 -15 2 0 6 7 10 15 3 8 1 15 -4 15 -6 0 -10
-7 -10 -15z"/>
<path d="M6550 3430 c0 -5 5 -10 11 -10 5 0 7 5 4 10 -3 6 -8 10 -11 10 -2 0
-4 -4 -4 -10z"/>
<path d="M6508 3313 c7 -3 16 -2 19 1 4 3 -2 6 -13 5 -11 0 -14 -3 -6 -6z"/>
<path d="M3945 3510 c3 -5 10 -10 16 -10 5 0 9 5 9 10 0 6 -7 10 -16 10 -8 0
-12 -4 -9 -10z"/>
<path d="M6016 3285 c-3 -8 -1 -15 4 -15 6 0 10 7 10 15 0 8 -2 15 -4 15 -2 0
-6 -7 -10 -15z"/>
<path d="M6160 3270 c0 -5 5 -10 10 -10 6 0 10 5 10 10 0 6 -4 10 -10 10 -5 0
-10 -4 -10 -10z"/>
<path d="M6050 3260 c0 -5 5 -10 11 -10 5 0 7 5 4 10 -3 6 -8 10 -11 10 -2 0
-4 -4 -4 -10z"/>
<path d="M6003 3233 c-7 -2 -13 -12 -13 -21 0 -15 2 -15 10 -2 6 10 10 11 10
3 0 -7 5 -13 10 -13 6 0 10 9 10 20 0 20 -5 23 -27 13z"/>
<path d="M5272 3184 c-17 -18 -9 -44 14 -44 13 0 14 3 5 14 -6 7 -9 21 -5 30
8 20 3 20 -14 0z"/>
<path d="M4640 3154 c0 -8 5 -12 10 -9 6 4 8 11 5 16 -9 14 -15 11 -15 -7z"/>
<path d="M6095 3161 c-6 -11 9 -23 19 -14 9 9 7 23 -3 23 -6 0 -12 -4 -16 -9z"/>
<path d="M4945 3150 c3 -5 8 -10 11 -10 2 0 4 5 4 10 0 6 -5 10 -11 10 -5 0
-7 -4 -4 -10z"/>
<path d="M5506 3124 c-9 -8 -16 -19 -16 -24 0 -14 31 -21 48 -10 16 9 16 9 0
10 -10 0 -18 5 -18 10 0 6 9 10 20 10 11 0 20 5 20 10 0 16 -37 12 -54 -6z"/>
<path d="M4725 3120 c-7 -12 22 -12 50 0 17 7 15 9 -12 9 -17 1 -35 -3 -38 -9z"/>
<path d="M5378 3105 c18 -13 27 -14 35 -6 8 8 7 11 -5 11 -9 0 -25 3 -35 6
-13 5 -11 1 5 -11z"/>
<path d="M6050 3099 c0 -5 5 -7 10 -4 6 3 10 8 10 11 0 2 -4 4 -10 4 -5 0 -10
-5 -10 -11z"/>
<path d="M5588 3079 c-13 -13 -14 -19 -5 -19 14 0 37 20 37 32 0 13 -14 8 -32
-13z"/>
<path d="M5475 3060 c-4 -6 5 -10 19 -10 14 0 26 5 26 10 0 6 -9 10 -19 10
-11 0 -23 -4 -26 -10z"/>
<path d="M5395 3010 c4 -6 11 -8 16 -5 14 9 11 15 -7 15 -8 0 -12 -5 -9 -10z"/>
<path d="M5630 3010 c0 -5 5 -10 10 -10 6 0 10 5 10 10 0 6 -4 10 -10 10 -5 0
-10 -4 -10 -10z"/>
<path d="M5115 2950 c-3 -6 1 -7 9 -4 18 7 21 14 7 14 -6 0 -13 -4 -16 -10z"/>
<path d="M5415 11949 c-4 -6 -5 -12 -2 -15 2 -3 7 2 10 11 7 17 1 20 -8 4z"/>
<path d="M5468 11943 c-10 -3 -18 -9 -18 -14 0 -10 7 -11 34 0 23 9 9 19 -16
14z"/>
<path d="M4466 11918 c3 -5 10 -6 15 -3 13 9 11 12 -6 12 -8 0 -12 -4 -9 -9z"/>
<path d="M4465 11880 c3 -5 8 -10 11 -10 2 0 4 5 4 10 0 6 -5 10 -11 10 -5 0
-7 -4 -4 -10z"/>
<path d="M6308 11733 c6 -2 18 -2 25 0 6 3 1 5 -13 5 -14 0 -19 -2 -12 -5z"/>
<path d="M6355 11730 c3 -5 12 -7 20 -3 21 7 19 13 -6 13 -11 0 -18 -4 -14
-10z"/>
<path d="M6480 11700 c0 -5 7 -7 15 -4 8 4 15 8 15 10 0 2 -7 4 -15 4 -8 0
-15 -4 -15 -10z"/>
<path d="M3740 11651 c0 -5 5 -13 10 -16 6 -3 10 -2 10 4 0 5 -4 13 -10 16 -5
3 -10 2 -10 -4z"/>
<path d="M6585 11640 c-3 -5 -1 -10 4 -10 6 0 11 5 11 10 0 6 -2 10 -4 10 -3
0 -8 -4 -11 -10z"/>
<path d="M6810 11570 c-13 -8 -12 -10 3 -10 9 0 17 -5 17 -12 0 -6 3 -9 6 -5
3 3 2 12 -3 21 -6 10 -13 12 -23 6z"/>
<path d="M6890 11541 c0 -6 6 -11 13 -12 6 0 3 -4 -8 -9 -16 -7 -17 -9 -3 -9
24 -1 31 14 13 29 -10 9 -15 9 -15 1z"/>
<path d="M7146 11131 c3 -13 7 -30 8 -37 1 -7 5 -17 9 -20 12 -12 7 20 -8 51
-11 22 -13 24 -9 6z"/>
<path d="M2828 10983 c7 -3 16 -2 19 1 4 3 -2 6 -13 5 -11 0 -14 -3 -6 -6z"/>
<path d="M2621 10673 c-1 -13 -6 -23 -13 -23 -9 0 -9 -3 0 -12 19 -19 35 3 23
33 -10 24 -10 24 -10 2z"/>
<path d="M2718 10683 c7 -3 16 -2 19 1 4 3 -2 6 -13 5 -11 0 -14 -3 -6 -6z"/>
<path d="M2750 10664 c0 -8 5 -12 10 -9 6 4 8 11 5 16 -9 14 -15 11 -15 -7z"/>
<path d="M2530 10563 c0 -15 19 -37 26 -31 3 4 -1 14 -10 23 -9 9 -16 13 -16
8z"/>
<path d="M2440 9756 c0 -2 7 -7 16 -10 8 -3 12 -2 9 4 -6 10 -25 14 -25 6z"/>
<path d="M2470 9520 c-9 -6 -10 -10 -3 -10 6 0 15 5 18 10 8 12 4 12 -15 0z"/>
<path d="M2480 9490 c0 -5 5 -10 11 -10 5 0 7 5 4 10 -3 6 -8 10 -11 10 -2 0
-4 -4 -4 -10z"/>
<path d="M7676 9307 c3 -10 9 -15 12 -12 3 3 0 11 -7 18 -10 9 -11 8 -5 -6z"/>
<path d="M2560 9106 c0 -8 -6 -17 -12 -19 -8 -3 -6 -6 5 -6 11 -1 17 6 17 19
0 11 -2 20 -5 20 -3 0 -5 -6 -5 -14z"/>
<path d="M2735 7839 c-11 -16 -1 -19 13 -3 7 8 8 14 3 14 -5 0 -13 -5 -16 -11z"/>
<path d="M2743 7745 c0 -22 2 -30 4 -17 2 12 2 30 0 40 -3 9 -5 -1 -4 -23z"/>
<path d="M7286 7243 c-6 -14 -5 -15 5 -6 7 7 10 15 7 18 -3 3 -9 -2 -12 -12z"/>
<path d="M3561 5434 c0 -11 3 -14 6 -6 3 7 2 16 -1 19 -3 4 -6 -2 -5 -13z"/>
<path d="M3503 5173 c-15 -5 -17 -23 -4 -23 5 0 11 7 15 15 3 8 4 15 3 14 -1
0 -8 -3 -14 -6z"/>
</g>
</svg>
